<?xml version="1.0" standalone="no"?>
<!DOCTYPE svg PUBLIC "-//W3C//DTD SVG 20010904//EN"
 "http://www.w3.org/TR/2001/REC-SVG-20010904/DTD/svg10.dtd">
<svg version="1.0" xmlns="http://www.w3.org/2000/svg"
 width="400.000000pt" height="400.000000pt" viewBox="0 0 400.000000 400.000000"
 preserveAspectRatio="xMidYMid meet">

<g transform="translate(0.000000,400.000000) scale(0.100000,-0.100000)"
fill="#000000" stroke="none">
<path d="M1403 3133 c3 -5 101 -174 219 -378 260 -448 233 -407 275 -435 82
-56 196 -30 251 58 17 26 114 193 217 372 103 179 196 340 207 358 l20 32
-597 0 c-328 0 -594 -3 -592 -7z"/>
<path d="M1200 2903 c-57 -98 -133 -230 -170 -293 -232 -401 -310 -538 -310
-548 0 -16 857 -17 915 -1 59 16 122 85 131 144 8 59 -3 89 -104 263 -44 75
-139 241 -212 367 -73 127 -136 234 -140 238 -4 5 -54 -72 -110 -170z"/>
<path d="M2464 2703 c-120 -208 -225 -396 -233 -418 -33 -93 32 -202 135 -225
41 -10 897 -14 906 -4 3 3 -23 56 -59 117 -36 62 -158 272 -270 467 -113 195
-216 374 -229 398 -14 23 -26 42 -28 42 -2 0 -102 -170 -222 -377z"/>
<path d="M2783 1940 c-438 -5 -452 -6 -480 -26 -64 -47 -95 -126 -75 -192 10
-32 430 -772 452 -795 4 -5 19 11 33 35 14 23 90 156 169 293 80 138 199 345
266 460 67 116 120 214 119 220 -3 11 46 11 -484 5z"/>
<path d="M724 1925 c7 -20 566 -988 576 -998 9 -10 435 722 458 786 26 73 -5
156 -77 204 l-34 23 -465 0 c-409 0 -463 -2 -458 -15z"/>
<path d="M1925 1696 c-16 -7 -41 -24 -55 -39 -13 -14 -124 -198 -246 -409
l-221 -383 299 -3 c165 -1 431 -1 592 0 l293 3 -221 383 c-122 211 -233 395
-246 409 -48 50 -131 67 -195 39z"/>
</g>
</svg>
