<?xml version="1.0" encoding="UTF-8"?>
<svg version="1.1" xmlns="http://www.w3.org/2000/svg" width="50" height="50">
<path d="M0 0 C4.94822094 -0.22532405 7.20607263 1.05715851 11.3125 3.875 C12.38113281 4.59429687 13.44976562 5.31359375 14.55078125 6.0546875 C15.35902344 6.69664062 16.16726563 7.33859375 17 8 C17 8.66 17 9.32 17 10 C17.5775 10.20625 18.155 10.4125 18.75 10.625 C24.29583113 14.01411902 26.18117349 20.44186381 27.75585938 26.4206543 C33.73872184 52.17443524 25.49766467 77.23744087 12 99 C9.48412021 102.77963614 6.75186133 106.39024426 4 110 C3.34 110.99 2.68 111.98 2 113 C1.34 113 0.68 113 0 113 C-0.2475 113.556875 -0.495 114.11375 -0.75 114.6875 C-2.22924818 117.42410913 -3.93467439 119.67650869 -6 122 C-6.66 122 -7.32 122 -8 122 C-8.37125 122.85851562 -8.37125 122.85851562 -8.75 123.734375 C-10.19316199 126.35010611 -11.88216222 128.14773456 -14 130.25 C-14.70125 130.95640625 -15.4025 131.6628125 -16.125 132.390625 C-18 134 -18 134 -20 134 C-20.24693604 134.59925293 -20.49387207 135.19850586 -20.74829102 135.81591797 C-22.21140843 138.36888235 -23.56909574 139.35386138 -26.02734375 140.9453125 C-26.81947266 141.46480469 -27.61160156 141.98429688 -28.42773438 142.51953125 C-29.25595703 143.04933594 -30.08417969 143.57914063 -30.9375 144.125 C-31.76185547 144.66253906 -32.58621094 145.20007813 -33.43554688 145.75390625 C-34.967219 146.751795 -36.50138808 147.74586905 -38.03881836 148.73486328 C-39.70244454 149.80805025 -41.35275426 150.90183617 -43 152 C-43.99 152 -44.98 152 -46 152 C-46 152.66 -46 153.32 -46 154 C-68.73420503 165.10342886 -68.73420503 165.10342886 -79.0703125 168.8046875 C-83.66366874 170.67877685 -87.87481601 173.20270257 -92.125 175.7421875 C-95.41869501 177.18317906 -96.65904695 177.19832531 -100 176 C-102.01953125 174.87890625 -102.01953125 174.87890625 -103.8125 173.5625 C-104.41707031 173.13066406 -105.02164063 172.69882812 -105.64453125 172.25390625 C-106.09183594 171.84011719 -106.53914063 171.42632812 -107 171 C-107 170.34 -107 169.68 -107 169 C-107.99 168.67 -108.98 168.34 -110 168 C-112.1875 166.0625 -112.1875 166.0625 -114 164 C-114 163.34 -114 162.68 -114 162 C-114.66 162 -115.32 162 -116 162 C-121.54355475 155.66139712 -127.33667112 148.06651908 -130 140 C-129 137 -129 137 -126.875 135.88671875 C-123.59429526 134.87487096 -120.39330887 134.33916981 -117 133.8125 C-106.64216922 132.02528079 -96.84560338 128.61341714 -87 125 C-86.34257812 124.75910645 -85.68515625 124.51821289 -85.0078125 124.27001953 C-71.40458217 119.15767014 -57.53486585 111.62854671 -46.49609375 102.14453125 C-45 101 -45 101 -43 101 C-43 100.34 -43 99.68 -43 99 C-39.53846154 96 -39.53846154 96 -37 96 C-37 95.34 -37 94.68 -37 94 C-36.195625 93.360625 -35.39125 92.72125 -34.5625 92.0625 C-16.5333822 77.55436285 -4.05370199 50.74183715 -1 28 C-0.64746326 23.12718984 -0.49570312 18.25844709 -0.375 13.375 C-0.31699219 11.43947266 -0.31699219 11.43947266 -0.2578125 9.46484375 C-0.16433658 6.3100313 -0.07857687 3.15521273 0 0 Z " fill="#FA376A" transform="translate(289,154)"/>
<path d="M0 0 C6.93302093 -0.22731216 13.2168636 0.57997892 20 2 C24.43269973 26.89435828 19.34034102 50.348617 5.2890625 71.5859375 C2.50154959 75.46126033 2.50154959 75.46126033 1 77 C0.34 77 -0.32 77 -1 77 C-1.268125 77.58394531 -1.53625 78.16789062 -1.8125 78.76953125 C-6.33282709 87.26001403 -15.89420728 96.92152915 -25 100 C-25 100.66 -25 101.32 -25 102 C-47.08516864 114.87212492 -75.50063724 129.43239799 -102 128 C-104.14470794 119.94757435 -104.30947675 112.00746875 -104.26074219 103.73852539 C-104.24989982 101.54220743 -104.26075484 99.34668575 -104.2734375 97.15039062 C-104.27211785 95.74739404 -104.2695595 94.34439794 -104.265625 92.94140625 C-104.26336914 91.68013916 -104.26111328 90.41887207 -104.25878906 89.11938477 C-104 86 -104 86 -102 83 C-99.58683269 82.61929676 -97.30431836 82.40204163 -94.875 82.25 C-73.93065469 80.2668749 -53.04711007 72.6216695 -36.03515625 60.1640625 C-33 58 -33 58 -31 58 C-31 57.34 -31 56.68 -31 56 C-29.49609375 54.5546875 -29.49609375 54.5546875 -27.4375 52.875 C-11.01701583 38.7631955 -4.71746371 20.59575619 0 0 Z " fill="#F95977" transform="translate(253,145)"/>
<path d="M0 0 C3.63647709 1.21215903 4.15397647 2.61852822 5.85498047 5.91333008 C6.19158691 6.60193115 6.52819336 7.29053223 6.875 8 C7.4011792 9.0667395 7.4011792 9.0667395 7.93798828 10.1550293 C11.60022681 17.85078156 13.94377513 25.75012612 16 34 C16.36931641 35.37478516 16.36931641 35.37478516 16.74609375 36.77734375 C20.65148451 53.82639446 19.30738351 75.45242834 11 91 C9.99426847 93.33086862 8.99441502 95.66428101 8 98 C4.02076319 106.75432099 -0.09960695 115.11546993 -7 122 C-7.66 122 -8.32 122 -9 122 C-9.0825 122.5775 -9.165 123.155 -9.25 123.75 C-10.21797787 126.6539336 -11.68694284 128.03740604 -14 130 C-14.66 130 -15.32 130 -16 130 C-16.24492187 130.58265625 -16.48984375 131.1653125 -16.7421875 131.765625 C-23.13025143 143.11336589 -41.51952933 149.65039792 -53.33984375 153.26171875 C-54.21769531 153.50535156 -55.09554687 153.74898437 -56 154 C-56.76441406 154.21269531 -57.52882813 154.42539062 -58.31640625 154.64453125 C-67.64179344 156.96336635 -77.42915359 157.31902821 -87 157 C-88.18722656 156.97486328 -88.18722656 156.97486328 -89.3984375 156.94921875 C-98.86759449 156.43934107 -107.91780531 153.55054379 -117 151 C-117 150.01 -117 149.02 -117 148 C-111.8422408 143.70397944 -105.1894646 141.10504959 -99.125 138.3125 C-85.48033362 132.01295684 -72.14745858 125.08570676 -60.13598633 115.99658203 C-56.17337673 113 -56.17337673 113 -54 113 C-54 112.34 -54 111.68 -54 111 C-52.48772933 109.6697891 -50.91330976 108.40972409 -49.3125 107.1875 C-46.38007886 104.91041484 -43.55643764 102.69545841 -41 100 C-40.34 99.34 -39.68 98.68 -39 98 C-38.34 98 -37.68 98 -37 98 C-36.773125 97.45859375 -36.54625 96.9171875 -36.3125 96.359375 C-34.94361015 93.89863253 -33.29223611 91.93501502 -31.42114258 89.84082031 C-8.36467674 64.03152098 0.62416905 34.15591733 0 0 Z " fill="#F61862" transform="translate(333,193)"/>
<path d="M0 0 C1.03898437 -0.020625 2.07796875 -0.04125 3.1484375 -0.0625 C13.67916734 -0.11502234 22.53056776 2.30960768 31.8125 7.1875 C32.47572266 7.52201172 33.13894531 7.85652344 33.82226562 8.20117188 C37.91075535 10.29586701 41.80830509 12.50841572 45.5 15.25 C45.5 15.91 45.5 16.57 45.5 17.25 C46.16 17.25 46.82 17.25 47.5 17.25 C47.5 17.91 47.5 18.57 47.5 19.25 C48.16 19.25 48.82 19.25 49.5 19.25 C49.5 19.91 49.5 20.57 49.5 21.25 C50.16 21.25 50.82 21.25 51.5 21.25 C51.5 21.91 51.5 22.57 51.5 23.25 C52.16 23.25 52.82 23.25 53.5 23.25 C54.7890625 24.7109375 54.7890625 24.7109375 56.125 26.625 C56.57101562 27.25148438 57.01703125 27.87796875 57.4765625 28.5234375 C58.5 30.25 58.5 30.25 58.5 32.25 C59.16 32.25 59.82 32.25 60.5 32.25 C61.87216028 34.63701843 63.22243979 37.03255054 64.5625 39.4375 C64.95244141 40.11103516 65.34238281 40.78457031 65.74414062 41.47851562 C67.41902008 44.51701375 68.50099507 46.53653209 68.49609375 50.05078125 C66.68184785 54.05635161 63.69651327 55.24745003 59.77734375 56.78515625 C39.57428145 64.06591772 18.76291222 67.00039612 -1.5 58.25 C-12.55898762 52.85792556 -21.65070048 45.44690062 -30.0625 36.5625 C-30.58779297 36.01577637 -31.11308594 35.46905273 -31.65429688 34.90576172 C-34.48303305 31.8269353 -36.30813011 29.50951146 -36.5 25.25 C-34.33367847 23.08367847 -29.31668018 23.93915861 -26.33618164 23.93310547 C-12.53449186 24.1769569 -0.04278944 28.88313337 12.5 34.25 C17.08175357 36.11133739 21.52042648 37.89431618 26.5 38.25 C27.49 37.26 27.49 37.26 28.5 36.25 C11.72275054 21.60438911 -9.74282596 18.69005892 -31.23608398 17.46777344 C-33.41406162 17.25826669 -35.39636358 16.83992299 -37.5 16.25 C-37.12965838 13.71751686 -36.77255213 12.50865991 -34.890625 10.72265625 C-23.91731405 3.49388754 -12.99470397 0.06262508 0 0 Z " fill="#08C582" transform="translate(305.5,88.75)"/>
<path d="M0 0 C0.27998957 5.40379867 -0.56826039 9.74916416 -2.5 14.75 C-2.76772217 15.44810791 -3.03544434 16.14621582 -3.3112793 16.86547852 C-11.0679056 36.08573094 -27.65910712 48.19941147 -46.06396484 56.26391602 C-56.25711366 60.52266802 -66.85093307 63.79636192 -78 63 C-75.97362055 46.71744516 -61.43646719 31.2428905 -49.51171875 20.94140625 C-44.62309697 17.16279813 -39.35516459 14.06482225 -34 11 C-33.23558594 10.53722656 -32.47117188 10.07445312 -31.68359375 9.59765625 C-22.96060275 4.71340548 -10.07612098 0 0 0 Z " fill="#F0A7A9" transform="translate(236,145)"/>
<path d="M0 0 C0.69527802 0.03911499 1.39055603 0.07822998 2.10690308 0.11853027 C22.15681428 1.28181428 22.15681428 1.28181428 26 5.125 C25.625 7.25 25.625 7.25 25 9.125 C19.93034008 10.70885454 15.08730763 11.62738654 9.8125 12.1875 C9.13380859 12.26548828 8.45511719 12.34347656 7.75585938 12.42382812 C5.505485 12.67572017 3.25334677 12.90132389 1 13.125 C0.18225098 13.21547607 -0.63549805 13.30595215 -1.47802734 13.39916992 C-11.7137385 14.41618552 -21.97489886 14.32220407 -32.25 14.3125 C-33.22710937 14.31256042 -34.20421875 14.31262085 -35.2109375 14.31268311 C-49.89086057 14.29973944 -64.41903683 13.99038219 -79 12.125 C-80.03398926 11.99689941 -80.03398926 11.99689941 -81.08886719 11.86621094 C-90.46581692 10.65918308 -90.46581692 10.65918308 -93 8.125 C-92.85351562 6.10473633 -92.85351562 6.10473633 -92 4.125 C-85.42811426 -0.11848394 -76.02681072 0.32810437 -68.5 -0.0625 C-67.4605574 -0.12129333 -67.4605574 -0.12129333 -66.40011597 -0.18127441 C-44.24414196 -1.42491962 -22.14966263 -1.28923761 0 0 Z " fill="#E6A9C6" transform="translate(284,387.875)"/>
<path d="M0 0 C3.63647709 1.21215903 4.15397647 2.61852822 5.85498047 5.91333008 C6.19158691 6.60193115 6.52819336 7.29053223 6.875 8 C7.4011792 9.0667395 7.4011792 9.0667395 7.93798828 10.1550293 C11.60022681 17.85078156 13.94377513 25.75012612 16 34 C16.24621094 34.91652344 16.49242187 35.83304688 16.74609375 36.77734375 C20.65148451 53.82639446 19.30738351 75.45242834 11 91 C9.99426847 93.33086862 8.99441502 95.66428101 8 98 C4.02076319 106.75432099 -0.09960695 115.11546993 -7 122 C-7.66 122 -8.32 122 -9 122 C-9.1546875 122.9590625 -9.1546875 122.9590625 -9.3125 123.9375 C-9.539375 124.618125 -9.76625 125.29875 -10 126 C-11.485 126.495 -11.485 126.495 -13 127 C-12.67 125.68 -12.34 124.36 -12 123 C-11.34 123 -10.68 123 -10 123 C-10 121.68 -10 120.36 -10 119 C-8.515 118.505 -8.515 118.505 -7 118 C-4.04059383 114.92677052 -3.47482665 112.17847455 -3 108 C-2.34 108 -1.68 108 -1 108 C-1 107.34 -1 106.68 -1 106 C-0.01 106 0.98 106 2 106 C2.10957031 105.37351562 2.21914063 104.74703125 2.33203125 104.1015625 C2.49058594 103.28429687 2.64914062 102.46703125 2.8125 101.625 C2.96332031 100.81289063 3.11414063 100.00078125 3.26953125 99.1640625 C4 97 4 97 7 95 C7.9210985 92.23605089 7.9210985 92.23605089 8.5 89 C9.34966524 84.91713493 10.2732524 81.0061908 11.625 77.0625 C13.31806326 71.71876908 13.53707639 66.38228649 13.7890625 60.80859375 C14 58 14 58 15 57 C15.76859316 49.65402309 14.55745951 42.64272167 13.06738281 35.48413086 C12.38696488 32.20689225 12 29.37122115 12 26 C11.01 25.67 10.02 25.34 9 25 C7.8125 21.9375 7.8125 21.9375 7 19 C6.67 19.33 6.34 19.66 6 20 C5.48566406 20.50402344 4.97132813 21.00804687 4.44140625 21.52734375 C2.31777078 25.17032818 2.75287021 28.4344566 2.9375 32.5625 C3.25535077 40.61697384 3.25535077 40.61697384 1 44 C0.71125 44.598125 0.4225 45.19625 0.125 45.8125 C-1 48 -1 48 -3 50.5625 C-5.70796602 55.21681659 -6.25735324 59.72329935 -7 65 C-7.309375 66.8253125 -7.309375 66.8253125 -7.625 68.6875 C-7.74875 69.450625 -7.8725 70.21375 -8 71 C-11.465 71.495 -11.465 71.495 -15 72 C-15.103125 72.598125 -15.20625 73.19625 -15.3125 73.8125 C-16.09911856 76.31537724 -17.13545831 77.21314755 -19 79 C-19.33 79.99 -19.66 80.98 -20 82 C-22.475 82.495 -22.475 82.495 -25 83 C-24.38125 82.06994141 -24.38125 82.06994141 -23.75 81.12109375 C-6.9757052 55.39801222 0.56307461 30.81269395 0 0 Z " fill="#D34A73" transform="translate(333,193)"/>
<path d="M0 0 C4.94822094 -0.22532405 7.20607263 1.05715851 11.3125 3.875 C12.38113281 4.59429687 13.44976562 5.31359375 14.55078125 6.0546875 C15.76314453 7.01761719 15.76314453 7.01761719 17 8 C17 8.66 17 9.32 17 10 C17.5775 10.20625 18.155 10.4125 18.75 10.625 C24.29583113 14.01411902 26.18117349 20.44186381 27.75585938 26.4206543 C33.25116126 50.07568592 26.70952414 73.46930101 15 94 C14.67 94 14.34 94 14 94 C14 92.02 14 90.04 14 88 C14.99 87.67 15.98 87.34 17 87 C17.95992606 85.21205433 17.95992606 85.21205433 18.5625 83 C18.93568359 81.77796875 18.93568359 81.77796875 19.31640625 80.53125 C20.1362879 77.49534536 20.80748929 74.44578997 21.43457031 71.36499023 C21.97096164 69.12145706 22.69381298 67.09184718 23.51953125 64.94140625 C25.37328258 59.4748119 25.55471962 54.16981874 25.6875 48.4375 C25.72166016 47.42880859 25.75582031 46.42011719 25.79101562 45.38085938 C25.87263281 42.92068432 25.94205676 40.46082691 26 38 C25.01 37.505 25.01 37.505 24 37 C24.33 34.69 24.66 32.38 25 30 C24.34 29.67 23.68 29.34 23 29 C22.855625 27.9275 22.71125 26.855 22.5625 25.75 C21.86276394 21.08509293 20.61336953 18.36128054 17 15.3125 C16.34 14.879375 15.68 14.44625 15 14 C14.01 13.34 13.02 12.68 12 12 C12.33 11.34 12.66 10.68 13 10 C10.525 9.505 10.525 9.505 8 9 C8 8.01 8 7.02 8 6 C6.35 6.99 4.7 7.98 3 9 C3.185625 9.556875 3.37125 10.11375 3.5625 10.6875 C4.08119018 13.4291481 3.59530945 15.28803472 3 18 C2.9629721 19.6662553 2.95240038 21.33401319 3 23 C3.99 23.33 4.98 23.66 6 24 C3.25 30.75 3.25 30.75 1 33 C0.57491652 35.03369198 0.57491652 35.03369198 0.4375 37.3125 C-0.03442834 42.38979801 -0.71424471 46.42848942 -3 51 C-3.69356423 53.32548007 -4.36149212 55.65880445 -5 58 C-5.33 58.99 -5.66 59.98 -6 61 C-6.66 61 -7.32 61 -8 61 C-9.87543354 64.86763446 -9.87543354 64.86763446 -9 69 C-10.93939508 73.0942785 -13.74101757 75.90396669 -17 79 C-17.474375 79.556875 -17.94875 80.11375 -18.4375 80.6875 C-20.68830845 82.5781791 -23.2232608 83.12175813 -26 84 C-24.94009367 82.31086973 -23.87692554 80.62378609 -22.8125 78.9375 C-21.92498047 77.52791016 -21.92498047 77.52791016 -21.01953125 76.08984375 C-19.57407472 73.87832322 -18.10707896 71.81450362 -16.51953125 69.71484375 C-13.5872449 65.64182037 -11.74805571 61.25951729 -9.875 56.625 C-9.54113281 55.82578125 -9.20726562 55.0265625 -8.86328125 54.203125 C-3.21220763 40.50758188 -0.74223621 28.23276507 -0.375 13.375 C-0.33632813 12.08464844 -0.29765625 10.79429687 -0.2578125 9.46484375 C-0.16433658 6.3100313 -0.07857687 3.15521273 0 0 Z " fill="#E8889B" transform="translate(289,154)"/>
<path d="M0 0 C4.25122524 0.86759699 5.96751057 2.60198707 9.0625 5.625 C12.34618631 12.19237262 10.48906249 24.43835498 9.0625 31.625 C7.76448199 34.89981609 7.13023423 35.57984385 4.0625 37.625 C-2.06187774 38.29311393 -2.06187774 38.29311393 -5.11328125 35.96484375 C-8.55290338 31.55299438 -7.79048417 26.02500441 -7.9375 20.625 C-8.01166767 19.28768468 -8.0872103 17.95044498 -8.1640625 16.61328125 C-8.21304688 15.29714844 -8.26203125 13.98101562 -8.3125 12.625 C-8.36148438 11.408125 -8.41046875 10.19125 -8.4609375 8.9375 C-7.66164758 3.87930708 -5.01896382 1.06786464 0 0 Z " fill="#06BE79" transform="translate(248.9375,95.375)"/>
<path d="M0 0 C6.93302093 -0.22731216 13.2168636 0.57997892 20 2 C22.82898994 17.88780957 22.40483004 31.65498255 17 47 C16.01 46.505 16.01 46.505 15 46 C15.13277344 45.41734375 15.26554687 44.8346875 15.40234375 44.234375 C16.64797158 38.45175237 17.36605038 32.78238156 17.7734375 26.8828125 C17.97410804 24.32945284 18.30827385 21.84361405 18.6875 19.3125 C19.25421783 14.62419791 18.28736474 10.50045691 17 6 C16.01 6 15.02 6 14 6 C11.33333333 6 8.66666667 6 6 6 C6 5.34 6 4.68 6 4 C1.62845166 7.49723867 1.02624012 10.69775938 0 16 C0 16.66 0 17.32 0 18 C0.66 18.33 1.32 18.66 2 19 C1 21 1 21 -0.375 22.25 C-4.21498186 26.38536509 -6 31.44338725 -6 37 C-7.42578125 38.46484375 -7.42578125 38.46484375 -9.3125 39.9375 C-11.99409082 42.10547967 -13.96096333 44.2097393 -16 47 C-16.66 47 -17.32 47 -18 47 C-18 47.66 -18 48.32 -18 49 C-18.66 49 -19.32 49 -20 49 C-20.433125 50.11375 -20.433125 50.11375 -20.875 51.25 C-21.431875 52.61125 -21.431875 52.61125 -22 54 C-22.37125 55.051875 -22.37125 55.051875 -22.75 56.125 C-25.0794152 59.6191228 -28.83436273 60.68209893 -32.75 61.75 C-35 62 -35 62 -37 61 C-33.25 58 -33.25 58 -31 58 C-31 57.34 -31 56.68 -31 56 C-29.49609375 54.5546875 -29.49609375 54.5546875 -27.4375 52.875 C-11.01701583 38.7631955 -4.71746371 20.59575619 0 0 Z " fill="#F19BA8" transform="translate(253,145)"/>
<path d="M0 0 C1.03898437 -0.020625 2.07796875 -0.04125 3.1484375 -0.0625 C13.8879646 -0.11606373 22.75269435 2.42554273 32.1875 7.4375 C32.90099609 7.80552734 33.61449219 8.17355469 34.34960938 8.55273438 C36.07127909 9.44245631 37.78640401 10.34482571 39.5 11.25 C38.18 12.24 36.86 13.23 35.5 14.25 C33 12.9375 33 12.9375 30.5 11.25 C30.5 10.26 30.5 9.27 30.5 8.25 C29.30375 8.12625 28.1075 8.0025 26.875 7.875 C23.21420875 7.4287198 19.99308452 6.44082427 16.5 5.25 C15.18 5.25 13.86 5.25 12.5 5.25 C9.8125 4.875 9.8125 4.875 7.5 4.25 C7.005 3.26 7.005 3.26 6.5 2.25 C3.79020876 2.33750996 1.08349252 2.44444893 -1.625 2.5625 C-2.76582031 2.59633789 -2.76582031 2.59633789 -3.9296875 2.63085938 C-8.85004745 2.8641523 -12.13889285 3.77891879 -16.5 6.25 C-18.2634375 6.683125 -18.2634375 6.683125 -20.0625 7.125 C-24.01813551 8.41957162 -25.80111385 10.14219171 -28.5 13.25 C-23.88 13.25 -19.26 13.25 -14.5 13.25 C-14.5 13.91 -14.5 14.57 -14.5 15.25 C-4.55411528 16.97148402 -4.55411528 16.97148402 5.5 17.25 C5.5 17.91 5.5 18.57 5.5 19.25 C6.2425 19.37375 6.985 19.4975 7.75 19.625 C10.30141485 20.20486701 12.2267573 20.98708739 14.5 22.25 C14.5 22.91 14.5 23.57 14.5 24.25 C16.48 24.91 18.46 25.57 20.5 26.25 C20.5 27.24 20.5 28.23 20.5 29.25 C17.86978922 28.20081666 15.24355888 27.1444271 12.625 26.06640625 C-1.83440891 20.26456842 -15.71388723 18.56623266 -31.14086914 17.49951172 C-33.34639409 17.26624601 -35.36743412 16.84715542 -37.5 16.25 C-37.12965838 13.71751686 -36.77255213 12.50865991 -34.890625 10.72265625 C-23.91731405 3.49388754 -12.99470397 0.06262508 0 0 Z " fill="#4ED4A5" transform="translate(305.5,88.75)"/>
<path d="M0 0 C0.31518913 5.62942445 -0.63073622 9.77907996 -2.6875 15 C-2.95643066 15.70189453 -3.22536133 16.40378906 -3.50244141 17.12695312 C-5.42375371 21.97150987 -7.60516764 26.00607958 -11 30 C-11.625 28.1875 -11.625 28.1875 -12 26 C-11.34 25.01 -10.68 24.02 -10 23 C-9.34 23 -8.68 23 -8 23 C-7.814375 21.700625 -7.814375 21.700625 -7.625 20.375 C-7 17 -7 17 -5.9375 14.0625 C-4.87168002 10.5808214 -4.85517059 7.62073528 -5 4 C-5.66 4.33 -6.32 4.66 -7 5 C-9.3650339 5.50167386 -11.7351137 5.95406031 -14.1171875 6.3671875 C-20.21602646 7.53767175 -24.5259259 9.5259259 -29 14 C-30.32 14 -31.64 14 -33 14 C-37.18466963 16.41780912 -40.72383592 19.40234898 -44.2890625 22.6328125 C-46.1075915 24.08597494 -47.89204451 25.02417291 -50 26 C-54.11699868 28.10870664 -55.73510992 30.00947938 -58 34 C-58.66 34 -59.32 34 -60 34 C-60.33 34.99 -60.66 35.98 -61 37 C-62.9375 39.1875 -62.9375 39.1875 -65 41 C-65.66 41 -66.32 41 -67 41 C-61.11761575 27.57214904 -46.19030989 17.97665449 -34 11 C-33.23558594 10.53722656 -32.47117188 10.07445312 -31.68359375 9.59765625 C-22.96060275 4.71340548 -10.07612098 0 0 0 Z " fill="#E1C9CB" transform="translate(236,145)"/>
<path d="M0 0 C0 0.33 0 0.66 0 1 C-0.69109863 1.01981934 -1.38219727 1.03963867 -2.09423828 1.06005859 C-15.63241244 1.46209461 -29.16093998 1.97448471 -42.67938232 2.81402588 C-44.67342217 2.93663439 -46.66801505 3.05013708 -48.66259766 3.16357422 C-49.87093262 3.24236816 -51.07926758 3.32116211 -52.32421875 3.40234375 C-53.39760498 3.46929443 -54.47099121 3.53624512 -55.5769043 3.60522461 C-56.37652588 3.73550049 -57.17614746 3.86577637 -58 4 C-58.33 4.66 -58.66 5.32 -59 6 C-59 5.34 -59 4.68 -59 4 C-62.65316671 5.24976756 -63.78065836 5.67098753 -66 9 C-64.35 9.33 -62.7 9.66 -61 10 C-60.67 9.34 -60.34 8.68 -60 8 C-57.4375 7.375 -57.4375 7.375 -55 7 C-55.33 7.99 -55.66 8.98 -56 10 C-50.39 10.66 -44.78 11.32 -39 12 C-39.33 12.66 -39.66 13.32 -40 14 C-71.07423581 12.92576419 -71.07423581 12.92576419 -75 9 C-74.85351562 6.97973633 -74.85351562 6.97973633 -74 5 C-67.42637407 0.75539241 -58.02791627 1.2069512 -50.5 0.8125 C-49.81800537 0.77263977 -49.13601074 0.73277954 -48.43334961 0.69171143 C-32.29606788 -0.24920933 -16.1577389 -0.20337975 0 0 Z " fill="#D7BACD" transform="translate(266,387)"/>
<path d="M0 0 C0.66 0.33 1.32 0.66 2 1 C1 4 1 4 -2.47265625 5.90234375 C-3.99562945 6.59624578 -5.52619834 7.27362908 -7.0625 7.9375 C-7.86872803 8.28941406 -8.67495605 8.64132813 -9.50561523 9.00390625 C-19.87967771 13.39031614 -30.62136273 16.81275981 -42 16 C-41.45765001 11.44426007 -40.47650958 7.89165792 -38 4 C-35.3125 2.625 -35.3125 2.625 -33 2 C-33 4.31 -33 6.62 -33 9 C-27.91696314 9.11320856 -27.91696314 9.11320856 -23 8 C-20.66700175 7.96045766 -18.33291811 7.95598268 -16 8 C-15.67 7.34 -15.34 6.68 -15 6 C-12.6693782 5.64820803 -10.33564933 5.31669821 -8 5 C-6.6520257 4.36345658 -5.31403276 3.70394612 -4 3 C-3.01 3 -2.02 3 -1 3 C-0.67 2.01 -0.34 1.02 0 0 Z " fill="#EC919A" transform="translate(200,192)"/>
<path d="M0 0 C0.598125 0.20625 1.19625 0.4125 1.8125 0.625 C0.8125 2.625 0.8125 2.625 -0.5625 3.875 C-4.40248186 8.01036509 -6.1875 13.06838725 -6.1875 18.625 C-7.61328125 20.08984375 -7.61328125 20.08984375 -9.5 21.5625 C-12.18159082 23.73047967 -14.14846333 25.8347393 -16.1875 28.625 C-16.8475 28.625 -17.5075 28.625 -18.1875 28.625 C-18.1875 29.285 -18.1875 29.945 -18.1875 30.625 C-18.8475 30.625 -19.5075 30.625 -20.1875 30.625 C-20.620625 31.73875 -20.620625 31.73875 -21.0625 32.875 C-21.619375 34.23625 -21.619375 34.23625 -22.1875 35.625 C-22.55875 36.676875 -22.55875 36.676875 -22.9375 37.75 C-25.2669152 41.2441228 -29.02186273 42.30709893 -32.9375 43.375 C-35.1875 43.625 -35.1875 43.625 -37.1875 42.625 C-33.4375 39.625 -33.4375 39.625 -31.1875 39.625 C-31.1875 38.965 -31.1875 38.305 -31.1875 37.625 C-29.68359375 36.1796875 -29.68359375 36.1796875 -27.625 34.5 C-18.12052038 26.33182683 -11.29530156 16.4984354 -6.640625 4.81640625 C-5.09844761 1.42941989 -4.02312668 -0.68967886 0 0 Z " fill="#E28E9C" transform="translate(253.1875,163.375)"/>
<path d="M0 0 C0.33 0 0.66 0 1 0 C1.2226746 1.43534841 1.42761906 2.87345525 1.625 4.3125 C1.79902344 5.51326172 1.79902344 5.51326172 1.9765625 6.73828125 C2 9 2 9 0 12 C-0.433125 12.8971875 -0.433125 12.8971875 -0.875 13.8125 C-2 16 -2 16 -4 18.5625 C-6.70796602 23.21681659 -7.25735324 27.72329935 -8 33 C-8.309375 34.8253125 -8.309375 34.8253125 -8.625 36.6875 C-8.74875 37.450625 -8.8725 38.21375 -9 39 C-12.465 39.495 -12.465 39.495 -16 40 C-16.103125 40.598125 -16.20625 41.19625 -16.3125 41.8125 C-17.09911856 44.31537724 -18.13545831 45.21314755 -20 47 C-20.33 47.99 -20.66 48.98 -21 50 C-23.475 50.495 -23.475 50.495 -26 51 C-25.38125 50.06994141 -25.38125 50.06994141 -24.75 49.12109375 C-15.80208764 35.39962993 -9.13169694 21.14985759 -3 6 C-2.34 6 -1.68 6 -1 6 C-0.67 4.02 -0.34 2.04 0 0 Z " fill="#F0366D" transform="translate(334,225)"/>
<path d="M0 0 C0.66 0 1.32 0 2 0 C3.67069523 6.5825392 4.38710216 12.65302933 4.375 19.4375 C4.37338867 20.39108398 4.37177734 21.34466797 4.37011719 22.32714844 C4.0722873 39.87575233 -1.37682663 54.88070269 -10 70 C-10.33 70 -10.66 70 -11 70 C-11 68.02 -11 66.04 -11 64 C-9.515 63.505 -9.515 63.505 -8 63 C-7.04007394 61.21205433 -7.04007394 61.21205433 -6.4375 59 C-6.18871094 58.1853125 -5.93992187 57.370625 -5.68359375 56.53125 C-4.8637121 53.49534536 -4.19251071 50.44578997 -3.56542969 47.36499023 C-3.02903836 45.12145706 -2.30618702 43.09184718 -1.48046875 40.94140625 C0.37328258 35.4748119 0.55471962 30.16981874 0.6875 24.4375 C0.72166016 23.42880859 0.75582031 22.42011719 0.79101562 21.38085938 C0.87263281 18.92068432 0.94205676 16.46082691 1 14 C0.34 13.67 -0.32 13.34 -1 13 C-0.67 10.69 -0.34 8.38 0 6 C-0.66 5.67 -1.32 5.34 -2 5 C-1.34 3.35 -0.68 1.7 0 0 Z " fill="#D56D87" transform="translate(314,178)"/>
<path d="M0 0 C0 0.66 0 1.32 0 2 C-2.98836383 3.03762633 -5.98922167 4.02938915 -9 5 C-9.66902344 5.22429687 -10.33804688 5.44859375 -11.02734375 5.6796875 C-14.96311608 6.85478517 -18.15981073 7.01862263 -22.25390625 6.546875 C-23.59110718 6.39750488 -23.59110718 6.39750488 -24.95532227 6.24511719 C-25.63006592 6.16422852 -26.30480957 6.08333984 -27 6 C-26.88065762 10.39264365 -26.75635262 14.78511215 -26.62768555 19.17749023 C-26.58469436 20.66801252 -26.54299864 22.1585728 -26.50268555 23.64916992 C-26.29020881 31.47408484 -26.04221976 39.23152159 -25 47 C-21.9254644 46.2236068 -21.9254644 46.2236068 -20 44 C-18.02880859 43.77294922 -18.02880859 43.77294922 -15.6484375 43.8046875 C-14.79765625 43.81113281 -13.946875 43.81757813 -13.0703125 43.82421875 C-12.18085938 43.84097656 -11.29140625 43.85773438 -10.375 43.875 C-9.02921875 43.88853516 -9.02921875 43.88853516 -7.65625 43.90234375 C-5.43723414 43.9259503 -3.21874923 43.9588769 -1 44 C-1 44.33 -1 44.66 -1 45 C-4.20636973 45.67635064 -7.41536689 46.33932448 -10.625 47 C-11.52863281 47.19078125 -12.43226563 47.3815625 -13.36328125 47.578125 C-17.98203556 48.52210398 -22.25647172 49.25214768 -27 49 C-29.14470794 40.94757435 -29.30947675 33.00746875 -29.26074219 24.73852539 C-29.24989982 22.54220743 -29.26075484 20.34668575 -29.2734375 18.15039062 C-29.27211785 16.74739404 -29.2695595 15.34439794 -29.265625 13.94140625 C-29.26336914 12.68013916 -29.26111328 11.41887207 -29.25878906 10.11938477 C-29 7 -29 7 -27 4 C-24.22616909 3.50076952 -21.60947067 3.1621088 -18.8125 2.9375 C-12.55101801 2.38900938 -6.12710103 0 0 0 Z " fill="#D36C88" transform="translate(178,224)"/>
<path d="M0 0 C1.98 0.99 3.96 1.98 6 3 C6 3.66 6 4.32 6 5 C6.66 5 7.32 5 8 5 C8 5.66 8 6.32 8 7 C8.66 7 9.32 7 10 7 C10 7.66 10 8.32 10 9 C10.66 9 11.32 9 12 9 C12 9.66 12 10.32 12 11 C12.66 11 13.32 11 14 11 C15.2890625 12.4609375 15.2890625 12.4609375 16.625 14.375 C17.07101562 15.00148438 17.51703125 15.62796875 17.9765625 16.2734375 C19 18 19 18 19 20 C19.66 20 20.32 20 21 20 C22.37216028 22.38701843 23.72243979 24.78255054 25.0625 27.1875 C25.64741211 28.19780273 25.64741211 28.19780273 26.24414062 29.22851562 C29.03551805 34.29251891 29.03551805 34.29251891 28.85546875 37.87890625 C27.73613009 40.65425279 26.60522009 41.5526555 24 43 C21.25 43.6875 21.25 43.6875 19 44 C19.66 42.35 20.32 40.7 21 39 C22.32 39 23.64 39 25 39 C24.46375 38.443125 23.9275 37.88625 23.375 37.3125 C22.92125 36.549375 22.4675 35.78625 22 35 C22.8125 32.25 22.8125 32.25 24 30 C23.34 30 22.68 30 22 30 C22 29.01 22 28.02 22 27 C21.34 27 20.68 27 20 27 C20 25.68 20 24.36 20 23 C19.34 23 18.68 23 18 23 C18 21.68 18 20.36 18 19 C16.68 19 15.36 19 14 19 C11.65523449 18.3747292 9.31939207 17.7136591 7 17 C7.33 14.36 7.66 11.72 8 9 C7.34 8.67 6.68 8.34 6 8 C6 7.34 6 6.68 6 6 C4.68 5.34 3.36 4.68 2 4 C2 3.34 2 2.68 2 2 C1.34 2 0.68 2 0 2 C0 1.34 0 0.68 0 0 Z " fill="#10D38D" transform="translate(345,101)"/>
<path d="M0 0 C6.46182585 0.07480297 12.35710941 1.29961649 18.51757812 3.25976562 C18.18757813 3.91976562 17.85757812 4.57976562 17.51757812 5.25976562 C16.85757812 5.25976562 16.19757813 5.25976562 15.51757812 5.25976562 C15.51757812 4.59976563 15.51757812 3.93976563 15.51757812 3.25976562 C10.23757813 2.92976563 4.95757812 2.59976563 -0.48242188 2.25976562 C-0.15242188 4.56976563 0.17757813 6.87976563 0.51757812 9.25976562 C0.18757813 10.24976562 -0.14242188 11.23976563 -0.48242188 12.25976562 C0.17757813 12.25976562 0.83757812 12.25976562 1.51757812 12.25976562 C1.51757812 12.91976562 1.51757812 13.57976562 1.51757812 14.25976562 C2.83757812 14.58976562 4.15757812 14.91976562 5.51757812 15.25976562 C5.51757812 16.24976563 5.51757812 17.23976562 5.51757812 18.25976562 C6.83757812 18.25976562 8.15757812 18.25976562 9.51757812 18.25976562 C9.18757813 19.90976563 8.85757812 21.55976563 8.51757812 23.25976562 C3.6887219 20.77272313 0.40690522 17.3185102 -3.23242188 13.38476562 C-3.82152344 12.77246094 -4.410625 12.16015625 -5.01757812 11.52929688 C-10.38257234 5.76963642 -10.38257234 5.76963642 -10.48242188 1.25976562 C-8.29811255 -0.9245437 -3.02877218 0.01363084 0 0 Z " fill="#0FBC7F" transform="translate(279.482421875,112.740234375)"/>
<path d="M0 0 C1 3 1 3 0 6 C-1.64488294 7.68816933 -3.31337542 9.35353315 -5 11 C-5.556875 11.763125 -6.11375 12.52625 -6.6875 13.3125 C-7.120625 13.869375 -7.55375 14.42625 -8 15 C-8.66 15 -9.32 15 -10 15 C-10 15.66 -10 16.32 -10 17 C-10.99 17 -11.98 17 -13 17 C-12.79375 17.61875 -12.5875 18.2375 -12.375 18.875 C-12.25125 19.57625 -12.1275 20.2775 -12 21 C-12.66 21.66 -13.32 22.32 -14 23 C-14.66 22.67 -15.32 22.34 -16 22 C-16.33 22.99 -16.66 23.98 -17 25 C-17.99 25 -18.98 25 -20 25 C-20.185625 25.70125 -20.37125 26.4025 -20.5625 27.125 C-22.55189307 31.10378613 -25.27887608 33.59130568 -29 36 C-32.375 36.75 -32.375 36.75 -35 37 C-35.33 37.66 -35.66 38.32 -36 39 C-37.8125 40.1875 -37.8125 40.1875 -40 41 C-42.13671875 40.55078125 -42.13671875 40.55078125 -44 40 C-41.71234889 38.32756577 -39.42026108 36.66193073 -37.125 35 C-36.47402344 34.52304687 -35.82304687 34.04609375 -35.15234375 33.5546875 C-30.2265625 30 -30.2265625 30 -28 30 C-28 29.34 -28 28.68 -28 28 C-26.48772933 26.6697891 -24.91330976 25.40972409 -23.3125 24.1875 C-20.38007886 21.91041484 -17.55643764 19.69545841 -15 17 C-14.34 16.34 -13.68 15.68 -13 15 C-12.34 15 -11.68 15 -11 15 C-10.76539063 14.45859375 -10.53078125 13.9171875 -10.2890625 13.359375 C-8.6416356 10.34408456 -6.57346656 7.88815988 -4.375 5.25 C-3.55773437 4.26515625 -2.74046875 3.2803125 -1.8984375 2.265625 C-1.27195312 1.51796875 -0.64546875 0.7703125 0 0 Z " fill="#E6467C" transform="translate(307,276)"/>
<path d="M0 0 C0.66 0.99 1.32 1.98 2 3 C4.86857733 3.58888422 4.86857733 3.58888422 8.2578125 3.6953125 C9.52367187 3.77136719 10.78953125 3.84742187 12.09375 3.92578125 C13.43747103 3.99277123 14.7812215 4.05917301 16.125 4.125 C18.73187816 4.27154049 21.33865325 4.41992831 23.9453125 4.5703125 C25.78464355 4.67327637 25.78464355 4.67327637 27.66113281 4.77832031 C31.47439254 5.03149667 35.21642053 5.47270408 39 6 C39.66 6 40.32 6 41 6 C41 6.66 41 7.32 41 8 C41.7425 8.12375 42.485 8.2475 43.25 8.375 C45.80141485 8.95486701 47.7267573 9.73708739 50 11 C50 11.66 50 12.32 50 13 C51.98 13.66 53.96 14.32 56 15 C56 15.99 56 16.98 56 18 C53.36978922 16.95081666 50.74355888 15.8944271 48.125 14.81640625 C33.66559109 9.01456842 19.78611277 7.31623266 4.35913086 6.24951172 C2.15360591 6.01624601 0.13256588 5.59715542 -2 5 C-1.125 1.125 -1.125 1.125 0 0 Z " fill="#1ED38E" transform="translate(270,100)"/>
<path d="M0 0 C0.66 0.33 1.32 0.66 2 1 C1.67 2.32 1.34 3.64 1 5 C2.68029297 5.30744141 2.68029297 5.30744141 4.39453125 5.62109375 C5.86720824 5.89311689 7.33986336 6.16525849 8.8125 6.4375 C9.55048828 6.57220703 10.28847656 6.70691406 11.04882812 6.84570312 C14.11315076 7.41419737 17.03928953 8.01309651 20 9 C23.20415449 9.22886818 26.41350718 9.18516945 29.625 9.1875 C30.92244141 9.20586914 30.92244141 9.20586914 32.24609375 9.22460938 C37.41495628 9.2362335 42.02675689 8.69306981 47.04003906 7.44750977 C50.71466384 6.6084979 54.25414441 6.88108395 58 7 C58 6.34 58 5.68 58 5 C61.63 4.67 65.26 4.34 69 4 C65.94796196 7.05203804 62.23455085 7.50160304 58.125 8.5625 C57.26527588 8.78574951 56.40555176 9.00899902 55.51977539 9.23901367 C49.01133413 10.86902491 42.72189497 11.86996334 36 12 C35.154375 12.02707031 34.30875 12.05414063 33.4375 12.08203125 C30.95156874 12.12475819 28.48474866 12.08282496 26 12 C24.81277344 11.97486328 24.81277344 11.97486328 23.6015625 11.94921875 C14.13240551 11.43934107 5.08219469 8.55054379 -4 6 C-4 5.01 -4 4.02 -4 3 C-2 1.3125 -2 1.3125 0 0 Z " fill="#D32F68" transform="translate(220,338)"/>
<path d="M0 0 C1 2 1 2 1 4 C-2.43661808 7.43661808 -7.29751475 7.512472 -12 8 C-15.09058495 7.8893057 -17.93879003 7.5018377 -21 7 C-18.22957891 4.22957891 -16.23466195 4.60203894 -12.375 4.375 C-11.18648438 4.30023438 -9.99796875 4.22546875 -8.7734375 4.1484375 C-7.85820312 4.09945313 -6.94296875 4.05046875 -6 4 C-6 3.67 -6 3.34 -6 3 C-6 2.01 -6 1.02 -6 0 C-7.97536745 0.34786708 -7.97536745 0.34786708 -10 1 C-10.33 1.66 -10.66 2.32 -11 3 C-11.66 3 -12.32 3 -13 3 C-12.67 1.68 -12.34 0.36 -12 -1 C-20.25 -1.33 -28.5 -1.66 -37 -2 C-37 -2.33 -37 -2.66 -37 -3 C-25.46765967 -5.56502232 -10.95864029 -4.42276962 0 0 Z " fill="#D9B6CD" transform="translate(309,392)"/>
<path d="M0 0 C0.66 0.33 1.32 0.66 2 1 C0.4992678 4.00146439 -0.44185178 5.69945865 -3.4375 7.3125 C-6 8 -6 8 -10 8 C-10.33 8.99 -10.66 9.98 -11 11 C-13.0625 11.9375 -13.0625 11.9375 -16 13 C-17.40441296 13.64839755 -18.79992776 14.31630532 -20.1875 15 C-21.19876953 15.495 -21.19876953 15.495 -22.23046875 16 C-24.17086636 16.99239039 -24.17086636 16.99239039 -26 19 C-27.32303717 19.3721042 -28.65737935 19.70630173 -30 20 C-30.66 20.33 -31.32 20.66 -32 21 C-34.3329866 21.04022391 -36.66706666 21.04320247 -39 21 C-35.48005704 18.04866321 -31.52893506 16.30153632 -27.375 14.4375 C-19.91894901 11.03413003 -12.78596611 7.20390514 -5.71435547 3.06225586 C-3.8411581 1.98463224 -1.92389165 0.98426722 0 0 Z " fill="#E04C82" transform="translate(261,317)"/>
<path d="M0 0 C-1.44944588 3.79271673 -3.10919673 4.89104032 -6.75 6.5625 C-8.09384766 7.18898438 -8.09384766 7.18898438 -9.46484375 7.828125 C-10.30144531 8.21484375 -11.13804687 8.6015625 -12 9 C-13.6396875 9.8971875 -13.6396875 9.8971875 -15.3125 10.8125 C-18.12608667 12.05571271 -19.96158987 12.26809501 -23 12 C-23 12.66 -23 13.32 -23 14 C-26.19554059 15.99721287 -29.20219413 16.33175909 -32.90625 16.71875 C-37.07701456 17.27900196 -41.02175586 18.67391862 -45 20 C-46.39439664 20.06665376 -47.79169875 20.08538199 -49.1875 20.0625 C-51.0746875 20.0315625 -51.0746875 20.0315625 -53 20 C-49.20277817 17.80317795 -45.08328463 16.8981467 -40.875 15.8125 C-27.99000057 12.34816798 -15.48960586 7.87580099 -3.96875 1.06640625 C-2 0 -2 0 0 0 Z " fill="#E2688B" transform="translate(225,269)"/>
<path d="M0 0 C0.33 0.66 0.66 1.32 1 2 C0.05698138 4.02749004 -0.95548562 6.02288349 -2 8 C-2.73491179 9.71004406 -3.4692303 11.42035453 -4.19677734 13.13354492 C-8.24318459 22.53621464 -12.66390623 31.68077081 -20 39 C-20.66 39 -21.32 39 -22 39 C-22.103125 39.639375 -22.20625 40.27875 -22.3125 40.9375 C-22.539375 41.618125 -22.76625 42.29875 -23 43 C-24.485 43.495 -24.485 43.495 -26 44 C-25.67 42.68 -25.34 41.36 -25 40 C-24.34 40 -23.68 40 -23 40 C-23 38.68 -23 37.36 -23 36 C-21.515 35.505 -21.515 35.505 -20 35 C-17.04059383 31.92677052 -16.47482665 29.17847455 -16 25 C-15.34 25 -14.68 25 -14 25 C-14 24.34 -14 23.68 -14 23 C-13.01 23 -12.02 23 -11 23 C-10.89042969 22.37351562 -10.78085937 21.74703125 -10.66796875 21.1015625 C-10.50941406 20.28429687 -10.35085938 19.46703125 -10.1875 18.625 C-10.03667969 17.81289063 -9.88585937 17.00078125 -9.73046875 16.1640625 C-9 14 -9 14 -6 12 C-4.83864986 9.39407523 -4.83864986 9.39407523 -3.9375 6.4375 C-3.34477166 4.60694542 -2.70915363 2.78867495 -2 1 C-1.34 0.67 -0.68 0.34 0 0 Z " fill="#D57296" transform="translate(346,276)"/>
<path d="M0 0 C0.33 0.66 0.66 1.32 1 2 C0.01 3.32 -0.98 4.64 -2 6 C-1.125 1.125 -1.125 1.125 0 0 Z M-5 6 C-4.01 6.33 -3.02 6.66 -2 7 C-4.08467907 12.18952023 -5.86071576 16.13666804 -10 20 C-10.309375 20.86625 -10.61875 21.7325 -10.9375 22.625 C-12 25 -12 25 -14.375 26.125 C-15.24125 26.41375 -16.1075 26.7025 -17 27 C-18.36365283 27.95824253 -19.70794169 28.94721175 -21 30 C-21 28.02 -21 26.04 -21 24 C-20.01 24 -19.02 24 -18 24 C-18 23.34 -18 22.68 -18 22 C-17.34 22 -16.68 22 -16 22 C-15.7525 21.443125 -15.505 20.88625 -15.25 20.3125 C-13.77075182 17.57589087 -12.06532561 15.32349131 -10 13 C-9.34 13 -8.68 13 -8 13 C-7.87625 12.030625 -7.7525 11.06125 -7.625 10.0625 C-7.41875 9.051875 -7.2125 8.04125 -7 7 C-6.34 6.67 -5.68 6.34 -5 6 Z " fill="#F12D6D" transform="translate(315,269)"/>
<path d="M0 0 C1.32 0 2.64 0 4 0 C7.24820505 14.99394653 6.10736209 28.49953285 1 43 C0.34 42.67 -0.32 42.34 -1 42 C-0.86722656 41.41734375 -0.73445313 40.8346875 -0.59765625 40.234375 C0.64797158 34.45175237 1.36605038 28.78238156 1.7734375 22.8828125 C1.97410804 20.32945284 2.30827385 17.84361405 2.6875 15.3125 C3.31243898 10.04378369 2.37759794 4.75519587 0 0 Z " fill="#DAA7B1" transform="translate(269,149)"/>
<path d="M0 0 C-3.59235021 2.94281087 -7.27911641 5.64752238 -11.125 8.25 C-12.15882813 8.95640625 -13.19265625 9.6628125 -14.2578125 10.390625 C-17 12 -17 12 -20 12 C-20 12.66 -20 13.32 -20 14 C-22.64 14.99 -25.28 15.98 -28 17 C-28.33 16.34 -28.66 15.68 -29 15 C-28.34 15 -27.68 15 -27 15 C-27 14.34 -27 13.68 -27 13 C-25.63875 12.38125 -25.63875 12.38125 -24.25 11.75 C-21.19047606 10.10256403 -19.38114082 8.46618157 -17 6 C-16.34 6 -15.68 6 -15 6 C-14.34 5.34 -13.68 4.68 -13 4 C-12.34 4.33 -11.68 4.66 -11 5 C-11 4.01 -11 3.02 -11 2 C-7.17679443 0.57741188 -4.08718695 -0.24042276 0 0 Z " fill="#E13E70" transform="translate(263,294)"/>
<path d="M0 0 C3.75376152 1.25125384 4.24073289 2.5652404 6 6 C6 6.66 6 7.32 6 8 C5.01 8.495 5.01 8.495 4 9 C3.56319868 11.2284307 3.56319868 11.2284307 3.4375 13.91796875 C3.36273438 14.92537109 3.28796875 15.93277344 3.2109375 16.97070312 C3.14132812 18.03224609 3.07171875 19.09378906 3 20.1875 C2.15802278 32.79377004 2.15802278 32.79377004 0 38 C-0.66 38 -1.32 38 -2 38 C-2.33 38.66 -2.66 39.32 -3 40 C-2.86722656 39.14277344 -2.73445313 38.28554687 -2.59765625 37.40234375 C-2.42105469 36.25894531 -2.24445313 35.11554688 -2.0625 33.9375 C-1.88847656 32.81214844 -1.71445312 31.68679687 -1.53515625 30.52734375 C-1.35855469 29.36332031 -1.18195313 28.19929688 -1 27 C-0.814375 25.9171875 -0.62875 24.834375 -0.4375 23.71875 C0.11990682 18.98079201 0.10709701 14.32751883 0.0625 9.5625 C0.05798828 8.64017578 0.05347656 7.71785156 0.04882812 6.76757812 C0.03713938 4.51164952 0.02075455 2.25586033 0 0 Z " fill="#D87C9B" transform="translate(333,193)"/>
<path d="M0 0 C2.49361571 1.20381448 4.68143083 2.45428722 7 4 C9.64632287 3.6878236 9.64632287 3.6878236 12 3 C12 3.66 12 4.32 12 5 C12.99 5 13.98 5 15 5 C15.33 5.99 15.66 6.98 16 8 C16.99 7.67 17.98 7.34 19 7 C21.33299825 6.96045766 23.66708189 6.95598268 26 7 C18.28571429 13 18.28571429 13 14.625 13 C11.00861727 11.62233039 7.84752383 9.6341647 5 7 C5 6.34 5 5.68 5 5 C4.01 4.67 3.02 4.34 2 4 C0.8125 1.9375 0.8125 1.9375 0 0 Z M11 5 C12 7 12 7 12 7 Z " fill="#D93B74" transform="translate(177,318)"/>
<path d="M0 0 C-2 2 -2 2 -5.3125 2.8125 C-9.43194138 4.13909977 -11.19762947 5.77302788 -14 9 C-9.38 9 -4.76 9 0 9 C0 9.66 0 10.32 0 11 C0.66 11.33 1.32 11.66 2 12 C-1.45900478 11.8904307 -4.91689109 11.75973152 -8.375 11.625 C-9.35984375 11.5940625 -10.3446875 11.563125 -11.359375 11.53125 C-12.77089844 11.47324219 -12.77089844 11.47324219 -14.2109375 11.4140625 C-15.08024902 11.3826416 -15.94956055 11.3512207 -16.84521484 11.31884766 C-19 11 -19 11 -21 9 C-15.76968731 1.15453096 -9.04099208 -0.75341601 0 0 Z " fill="#27D293" transform="translate(291,93)"/>
<path d="M0 0 C2 3 2 3 1.4375 5.9375 C-0.20464868 9.43599066 -1.94786874 10.71090155 -5 13 C-5.309375 13.680625 -5.61875 14.36125 -5.9375 15.0625 C-7.57322847 18.04529898 -9.92286013 18.78196547 -13 20 C-13.66 19.67 -14.32 19.34 -15 19 C-14.16855469 17.86111328 -14.16855469 17.86111328 -13.3203125 16.69921875 C-12.59585937 15.70535156 -11.87140625 14.71148437 -11.125 13.6875 C-10.40570313 12.70136719 -9.68640625 11.71523437 -8.9453125 10.69921875 C-7.5944065 8.82476885 -6.28164671 6.92247007 -5 5 C-4.01 5 -3.02 5 -2 5 C-1.34 3.35 -0.68 1.7 0 0 Z " fill="#EE5E7D" transform="translate(278,218)"/>
<path d="M0 0 C0.99 0 1.98 0 3 0 C1.4722133 3.43752007 -0.50181056 6.18953688 -3 9 C-3.66 9 -4.32 9 -5 9 C-5.2475 9.57234375 -5.495 10.1446875 -5.75 10.734375 C-7.19316199 13.35010611 -8.88216222 15.14773456 -11 17.25 C-11.70125 17.95640625 -12.4025 18.6628125 -13.125 19.390625 C-15 21 -15 21 -17 21 C-17.2475 21.61875 -17.495 22.2375 -17.75 22.875 C-19.20628639 25.35068687 -20.37812506 25.95125002 -23 27 C-23 25.68 -23 24.36 -23 23 C-22.01 22.67 -21.02 22.34 -20 22 C-19.67 21.01 -19.34 20.02 -19 19 C-18.34 19 -17.68 19 -17 19 C-17 18.01 -17 17.02 -17 16 C-16.01 16 -15.02 16 -14 16 C-13.67 15.34 -13.34 14.68 -13 14 C-12.01 14 -11.02 14 -10 14 C-10 13.34 -10 12.68 -10 12 C-9.34 12 -8.68 12 -8 12 C-7.34 10.35 -6.68 8.7 -6 7 C-5.01 7 -4.02 7 -3 7 C-2.87625 6.21625 -2.7525 5.4325 -2.625 4.625 C-2 2 -2 2 0 0 Z " fill="#EC769A" transform="translate(286,267)"/>
<path d="M0 0 C0.66 0 1.32 0 2 0 C1.6875 1.9375 1.6875 1.9375 1 4 C0.01 4.33 -0.98 4.66 -2 5 C-2.70294753 6.31456723 -3.36596944 7.65084194 -4 9 C-6.05360701 11.4698787 -8.18949197 13.42894232 -11 15 C-13.97668118 15.21299115 -16.05425534 14.72351623 -19 14 C-15.2123974 10.88875501 -11.29471902 8.07108926 -7.25 5.3125 C-3.44980273 2.86949158 -3.44980273 2.86949158 0 0 Z " fill="#EE5476" transform="translate(244,255)"/>
<path d="M0 0 C2.875 0.5 2.875 0.5 5.875 3.5 C2.575 3.83 -0.725 4.16 -4.125 4.5 C-5.18336661 7.67509982 -5.32743789 10.14282383 -5.44140625 13.48046875 C-5.48330078 14.64384766 -5.52519531 15.80722656 -5.56835938 17.00585938 C-5.60767578 18.22080078 -5.64699219 19.43574219 -5.6875 20.6875 C-5.73068359 21.91404297 -5.77386719 23.14058594 -5.81835938 24.40429688 C-5.9245309 27.43608381 -6.02657952 30.46795315 -6.125 33.5 C-6.455 33.5 -6.785 33.5 -7.125 33.5 C-7.53387239 29.17033345 -7.85344853 24.84044371 -8.125 20.5 C-8.1672168 19.83758301 -8.20943359 19.17516602 -8.25292969 18.49267578 C-8.36583257 16.49661067 -8.43319888 14.49813928 -8.5 12.5 C-8.54898438 11.283125 -8.59796875 10.06625 -8.6484375 8.8125 C-7.83284964 3.65116788 -5.17297529 0.82767605 0 0 Z " fill="#4BC299" transform="translate(249.125,95.5)"/>
<path d="M0 0 C0.66 0 1.32 0 2 0 C2.268125 0.804375 2.53625 1.60875 2.8125 2.4375 C3.204375 3.283125 3.59625 4.12875 4 5 C4.99 5.33 5.98 5.66 7 6 C4.525 7.485 4.525 7.485 2 9 C2.185625 9.556875 2.37125 10.11375 2.5625 10.6875 C3.08119018 13.4291481 2.59530945 15.28803472 2 18 C1.9629721 19.6662553 1.95240038 21.33401319 2 23 C2.99 23.33 3.98 23.66 5 24 C2.25 30.875 2.25 30.875 0 32 C0 21.44 0 10.88 0 0 Z " fill="#E07594" transform="translate(290,154)"/>
<path d="M0 0 C0.33 0 0.66 0 1 0 C1.2226746 1.43534841 1.42761906 2.87345525 1.625 4.3125 C1.74101562 5.11300781 1.85703125 5.91351563 1.9765625 6.73828125 C2 9 2 9 0 12 C-0.268125 12.598125 -0.53625 13.19625 -0.8125 13.8125 C-2.51340945 16.94575426 -4.5983109 19.35814199 -7 22 C-7.66 22 -8.32 22 -9 22 C-7.43551329 16.3856009 -5.83604813 11.13189662 -3 6 C-2.34 6 -1.68 6 -1 6 C-0.67 4.02 -0.34 2.04 0 0 Z " fill="#F03B6D" transform="translate(334,225)"/>
<path d="M0 0 C0.33 0 0.66 0 1 0 C1.29423625 22.68888441 1.29423625 22.68888441 -2 28 C-5.6441774 30.4294516 -7.71241272 30.16179575 -12 30 C-12 29.67 -12 29.34 -12 29 C-10.02 29 -8.04 29 -6 29 C-6 28.34 -6 27.68 -6 27 C-5.34 27 -4.68 27 -4 27 C-4 22.71 -4 18.42 -4 14 C-3.01 13.67 -2.02 13.34 -1 13 C-0.67 8.71 -0.34 4.42 0 0 Z " fill="#4EC8AE" transform="translate(258,103)"/>
<path d="M0 0 C0.33 0 0.66 0 1 0 C1.02493183 4.53490815 1.04296857 9.06977539 1.05493164 13.60473633 C1.05992496 15.14380591 1.06672194 16.68287084 1.07543945 18.22192383 C1.1994754 40.70161524 1.1994754 40.70161524 -1.46850586 43.58959961 C-1.97389893 44.05503174 -2.47929199 44.52046387 -3 45 C-4.17574711 47.09989652 -4.17574711 47.09989652 -5 49 C-6 47 -6 47 -5.51171875 45.1875 C-4.97008466 43.74998772 -4.42841895 42.31248736 -3.88671875 40.875 C-1.08207022 31.78151401 -0.60918402 22.84969505 -0.375 13.375 C-0.31699219 11.43947266 -0.31699219 11.43947266 -0.2578125 9.46484375 C-0.16433658 6.3100313 -0.07857687 3.15521273 0 0 Z " fill="#E198AC" transform="translate(289,154)"/>
<path d="M0 0 C2.31 0 4.62 0 7 0 C4.27783824 2.16031686 1.64529515 3.76299237 -1.51953125 5.19140625 C-2.37740234 5.57876953 -3.23527344 5.96613281 -4.11914062 6.36523438 C-5.00794922 6.76033203 -5.89675781 7.15542969 -6.8125 7.5625 C-7.68970703 7.96146484 -8.56691406 8.36042969 -9.47070312 8.77148438 C-14.25911465 10.91677869 -18.91109191 12.71562347 -24 14 C-23.67 13.01 -23.34 12.02 -23 11 C-21.68 11 -20.36 11 -19 11 C-19 10.34 -19 9.68 -19 9 C-15.14243493 6.84694043 -12.44870215 5.60746746 -8 6 C-8 5.34 -8 4.68 -8 4 C-5.09399739 2.74335022 -3.20395416 2 0 2 C0 1.34 0 0.68 0 0 Z " fill="#D84578" transform="translate(228,311)"/>
<path d="M0 0 C0 1.32 0 2.64 0 4 C-1.65 4.66 -3.3 5.32 -5 6 C-5.20140476 9.62528568 -4.85776765 11.86501708 -3 15 C-3.99 15 -4.98 15 -6 15 C-6.86627399 13.40233897 -7.71766465 11.79660056 -8.5625 10.1875 C-9.03816406 9.29417969 -9.51382813 8.40085937 -10.00390625 7.48046875 C-11 5 -11 5 -10 2 C-6.58442859 0.19733731 -3.83134499 -0.218934 0 0 Z " fill="#E34B7F" transform="translate(170,289)"/>
<path d="M0 0 C0 0.66 0 1.32 0 2 C-0.928125 2.433125 -1.85625 2.86625 -2.8125 3.3125 C-5.53402693 4.75330838 -6.94268891 5.84472171 -9 8 C-9.99 8.33 -10.98 8.66 -12 9 C-13.01187895 10.65948148 -14.0126546 12.32580562 -15 14 C-15.66 14 -16.32 14 -17 14 C-17.33 14.99 -17.66 15.98 -18 17 C-19.9375 19.1875 -19.9375 19.1875 -22 21 C-22.66 21 -23.32 21 -24 21 C-22.45104373 17.40242415 -20.26304052 14.87467538 -17.625 12 C-16.85414063 11.154375 -16.08328125 10.30875 -15.2890625 9.4375 C-6.42628205 0 -6.42628205 0 0 0 Z " fill="#DEBABC" transform="translate(193,165)"/>
<path d="M0 0 C0.66 0.33 1.32 0.66 2 1 C1.67 1.66 1.34 2.32 1 3 C6.61 3.66 12.22 4.32 18 5 C17.67 5.66 17.34 6.32 17 7 C13.70774862 6.88822884 10.41645353 6.75807764 7.125 6.625 C6.2071875 6.5940625 5.289375 6.563125 4.34375 6.53125 C-1.93854489 6.26580092 -7.874511 5.41690436 -14 4 C-14 3.67 -14 3.34 -14 3 C-10.7 3 -7.4 3 -4 3 C-3.67 2.34 -3.34 1.68 -3 1 C-2.01 0.67 -1.02 0.34 0 0 Z " fill="#DBBDCF" transform="translate(209,394)"/>
<path d="M0 0 C0.474375 0.474375 0.94875 0.94875 1.4375 1.4375 C5.11644797 3.68076096 8.7621112 3.73739578 13 4 C13.33 3.34 13.66 2.68 14 2 C14.33 2.33 14.66 2.66 15 3 C17.33297433 3.04092937 19.66705225 3.04241723 22 3 C22 3.66 22 4.32 22 5 C18.57426063 5.77528479 15.42760755 6.11918778 11.91796875 6.09765625 C10.98662109 6.09443359 10.05527344 6.09121094 9.09570312 6.08789062 C8.13599609 6.07951172 7.17628906 6.07113281 6.1875 6.0625 C4.71893555 6.05573242 4.71893555 6.05573242 3.22070312 6.04882812 C0.81373889 6.03708684 -1.59309857 6.02066419 -4 6 C-4 4 -4 4 -2 1.875 C-1.34 1.25625 -0.68 0.6375 0 0 Z " fill="#32A48A" transform="translate(324,146)"/>
<path d="M0 0 C0.66 0 1.32 0 2 0 C-0.47832599 9.65692543 -5.13112939 18.71483421 -12 26 C-12.33 25.01 -12.66 24.02 -13 23 C-12.34 22.67 -11.68 22.34 -11 22 C-10.34444881 19.47266765 -10.34444881 19.47266765 -10 17 C-9.34 17 -8.68 17 -8 17 C-7.67 16.01 -7.34 15.02 -7 14 C-6.34 14 -5.68 14 -5 14 C-4.34 10.37 -3.68 6.74 -3 3 C-2.01 2.67 -1.02 2.34 0 2 C0 1.34 0 0.68 0 0 Z " fill="#DF93A6" transform="translate(267,194)"/>
<path d="M0 0 C7.74468085 0.74468085 7.74468085 0.74468085 11 4 C11 4.66 11 5.32 11 6 C11.60328125 6.08636719 12.2065625 6.17273438 12.828125 6.26171875 C19.4373928 7.42367067 19.4373928 7.42367067 22.5625 10.625 C23.036875 11.40875 23.51125 12.1925 24 13 C14.88747309 11.87598787 7.13826808 6.55198628 0 1 C0 0.67 0 0.34 0 0 Z " fill="#46B69C" transform="translate(288,136)"/>
<path d="M0 0 C1.8125 0.125 1.8125 0.125 4 1 C5.99446343 4.02608245 7.02241059 6.03634467 6.9375 9.6875 C5.7653838 12.57871997 4.7159995 13.49111139 2 15 C-0.75 15.6875 -0.75 15.6875 -3 16 C-2.34 14.35 -1.68 12.7 -1 11 C0.32 11 1.64 11 3 11 C2.46375 10.443125 1.9275 9.88625 1.375 9.3125 C0.694375 8.1678125 0.694375 8.1678125 0 7 C0.8125 4.25 0.8125 4.25 2 2 C1.34 2 0.68 2 0 2 C0 1.34 0 0.68 0 0 Z " fill="#35B797" transform="translate(367,129)"/>
<path d="M0 0 C0 0.66 0 1.32 0 2 C-2.98836743 3.03762758 -5.98826647 4.03227998 -9 5 C-9.65742188 5.21269531 -10.31484375 5.42539063 -10.9921875 5.64453125 C-16.6487415 7.27577815 -22.14798208 7.19363295 -28 7 C-27.67 6.01 -27.34 5.02 -27 4 C-25.85402344 3.87882813 -24.70804688 3.75765625 -23.52734375 3.6328125 C-21.99736094 3.46385734 -20.46741493 3.29456873 -18.9375 3.125 C-18.18533203 3.04636719 -17.43316406 2.96773437 -16.65820312 2.88671875 C-13.04447296 2.47997856 -9.61858328 1.97080661 -6.12890625 0.9296875 C-3 0 -3 0 0 0 Z " fill="#E18499" transform="translate(178,224)"/>
<path d="M0 0 C0.66 0.33 1.32 0.66 2 1 C1 4 1 4 -0.65478516 5.05908203 C-1.35909668 5.37216309 -2.0634082 5.68524414 -2.7890625 6.0078125 C-3.56636719 6.35457031 -4.34367187 6.70132813 -5.14453125 7.05859375 C-5.96308594 7.41050781 -6.78164062 7.76242188 -7.625 8.125 C-8.42035156 8.48464844 -9.21570313 8.84429687 -10.03515625 9.21484375 C-14.73745715 11.27644365 -18.88199689 12.5472008 -24 13 C-23.67 12.01 -23.34 11.02 -23 10 C-20.69 10 -18.38 10 -16 10 C-15.67 8.68 -15.34 7.36 -15 6 C-13.9275 5.87625 -12.855 5.7525 -11.75 5.625 C-8.55508956 5.09251493 -6.76560241 4.48157272 -4 3 C-3.01 3 -2.02 3 -1 3 C-0.67 2.01 -0.34 1.02 0 0 Z " fill="#E39AA3" transform="translate(200,192)"/>
<path d="M0 0 C0.33 0 0.66 0 1 0 C1 1.98 1 3.96 1 6 C-0.32 6 -1.64 6 -3 6 C-3 7.32 -3 8.64 -3 10 C-5.38992464 13.37401126 -9.41499662 15.14348039 -13 17 C-13.99 17 -14.98 17 -16 17 C-16 16.34 -16 15.68 -16 15 C-12.53846154 12 -12.53846154 12 -10 12 C-10 11.34 -10 10.68 -10 10 C-8.54511274 8.77657208 -7.08613116 7.55733468 -5.59765625 6.375 C-3.41371464 4.49542189 -1.75469947 2.27461042 0 0 Z " fill="#E66A86" transform="translate(262,238)"/>
<path d="M0 0 C1.32 0.33 2.64 0.66 4 1 C4.625 2.875 4.625 2.875 5 5 C1.56338192 8.43661808 -3.29751475 8.512472 -8 9 C-11.09058495 8.8893057 -13.93879003 8.5018377 -17 8 C-13.72201932 4.72201932 -9.43753585 5.54148389 -4.96875 5.34375 C-1.88393229 5.29798671 -1.88393229 5.29798671 0 3 C0 2.01 0 1.02 0 0 Z " fill="#D7BDD1" transform="translate(305,391)"/>
<path d="M0 0 C0.598125 0.20625 1.19625 0.4125 1.8125 0.625 C0.7359717 2.77805661 -0.49559999 3.93309999 -2.1875 5.625 C-2.8475 6.615 -3.5075 7.605 -4.1875 8.625 C-4.5175 6.315 -4.8475 4.005 -5.1875 1.625 C-2.1875 -0.375 -2.1875 -0.375 0 0 Z M-7.1875 9.625 C-6.5275 9.955 -5.8675 10.285 -5.1875 10.625 C-5.3525 11.388125 -5.5175 12.15125 -5.6875 12.9375 C-6.27895396 15.66096236 -6.27895396 15.66096236 -6.1875 18.625 C-9.1875 20.8125 -9.1875 20.8125 -12.1875 22.625 C-11.58004603 17.76536821 -9.45991033 13.8844482 -7.1875 9.625 Z " fill="#EF8F99" transform="translate(253.1875,163.375)"/>
<path d="M0 0 C2.64 0.33 5.28 0.66 8 1 C9.61989062 4.54351073 10.10414268 7.12719419 10 11 C8.10448978 11.05441656 6.2085208 11.09298035 4.3125 11.125 C3.25675781 11.14820313 2.20101563 11.17140625 1.11328125 11.1953125 C-2.02251859 10.99858729 -4.17645373 10.33057654 -7 9 C-4.66776117 7.55166903 -3.47575712 6.93505022 -0.7109375 7.3125 C0.44535156 7.6528125 0.44535156 7.6528125 1.625 8 C3.90054065 8.72093129 3.90054065 8.72093129 6 9 C6.66 8.34 7.32 7.68 8 7 C6.576875 5.824375 6.576875 5.824375 5.125 4.625 C3.32295116 3.13635096 1.65621152 1.65621152 0 0 Z " fill="#46BB95" transform="translate(326,118)"/>
<path d="M0 0 C0.66 0.99 1.32 1.98 2 3 C4.41089707 3.60127148 4.41089707 3.60127148 7.2265625 3.73046875 C8.2578125 3.81103516 9.2890625 3.89160156 10.3515625 3.97460938 C11.97191406 4.07999023 11.97191406 4.07999023 13.625 4.1875 C14.71296875 4.26935547 15.8009375 4.35121094 16.921875 4.43554688 C19.61392407 4.63626983 22.30624934 4.82385312 25 5 C25 5.66 25 6.32 25 7 C2.93453725 7.46726862 2.93453725 7.46726862 -2 5 C-1.125 1.125 -1.125 1.125 0 0 Z " fill="#58D3A4" transform="translate(270,100)"/>
<path d="M0 0 C0.66 0.33 1.32 0.66 2 1 C1.67 2.32 1.34 3.64 1 5 C2.12019531 5.19335938 3.24039063 5.38671875 4.39453125 5.5859375 C5.86725349 5.8485886 7.33990619 6.11162983 8.8125 6.375 C9.55048828 6.50132812 10.28847656 6.62765625 11.04882812 6.7578125 C14.60594646 7.40163482 16.95494084 7.96996056 20 10 C14.79449253 11.79983385 10.265663 10.01286274 5.1875 8.5625 C4.30384766 8.31951172 3.42019531 8.07652344 2.50976562 7.82617188 C0.33693444 7.22717517 -1.83257509 6.61821989 -4 6 C-4 5.01 -4 4.02 -4 3 C-2 1.3125 -2 1.3125 0 0 Z " fill="#D73570" transform="translate(220,338)"/>
<path d="M0 0 C9.83743016 -0.33706931 18.50386702 -0.02149686 28 3 C27.67 3.66 27.34 4.32 27 5 C26.34 5 25.68 5 25 5 C25 4.34 25 3.68 25 3 C17.08 2.67 9.16 2.34 1 2 C1.33 3.65 1.66 5.3 2 7 C0.4375 5.75 0.4375 5.75 -1 4 C-0.58984375 1.890625 -0.58984375 1.890625 0 0 Z " fill="#74D3B5" transform="translate(270,113)"/>
<path d="M0 0 C0.99 0.66 1.98 1.32 3 2 C3.22137393 4.62697064 3.28162025 7.00893964 3.1875 9.625 C3.17396484 10.33140625 3.16042969 11.0378125 3.14648438 11.765625 C3.1111104 13.51074128 3.05730221 15.25546608 3 17 C1.68 17.33 0.36 17.66 -1 18 C-1.33 19.32 -1.66 20.64 -2 22 C-2.18413176 16.66017891 -1.69504588 13.08513763 0 8 C0.16648179 5.30691223 0.09318047 2.70223363 0 0 Z " fill="#16C38D" transform="translate(255,99)"/>
<path d="M0 0 C0.66 0 1.32 0 2 0 C2.33526499 3.68791492 2.26504265 5.56237143 0.3203125 8.7734375 C-0.40414063 9.63195312 -1.12859375 10.49046875 -1.875 11.375 C-2.59429687 12.24898438 -3.31359375 13.12296875 -4.0546875 14.0234375 C-4.69664062 14.67570312 -5.33859375 15.32796875 -6 16 C-6.66 16 -7.32 16 -8 16 C-8.103125 16.639375 -8.20625 17.27875 -8.3125 17.9375 C-8.539375 18.618125 -8.76625 19.29875 -9 20 C-9.99 20.33 -10.98 20.66 -12 21 C-11.67 19.68 -11.34 18.36 -11 17 C-10.34 17 -9.68 17 -9 17 C-9 15.68 -9 14.36 -9 13 C-8.01 12.67 -7.02 12.34 -6 12 C-3.04059383 8.92677052 -2.47482665 6.17847455 -2 2 C-1.34 2 -0.68 2 0 2 C0 1.34 0 0.68 0 0 Z " fill="#DF678E" transform="translate(332,299)"/>
<path d="M0 0 C0 0.33 0 0.66 0 1 C-10.7356937 2.36326269 -21.16129087 3.31366039 -32 3 C-25.84507064 -3.15492936 -8.37130868 -0.07807438 0 0 Z " fill="#D3B5C7" transform="translate(291,399)"/>
<path d="M0 0 C6.93302093 -0.22731216 13.2168636 0.57997892 20 2 C20 2.66 20 3.32 20 4 C19.15236084 3.97643433 19.15236084 3.97643433 18.28759766 3.95239258 C15.73349977 3.89012955 13.17956129 3.85103864 10.625 3.8125 C9.73554688 3.78736328 8.84609375 3.76222656 7.9296875 3.73632812 C7.07890625 3.72666016 6.228125 3.71699219 5.3515625 3.70703125 C4.56604004 3.6913208 3.78051758 3.67561035 2.97119141 3.65942383 C2.32069824 3.77181396 1.67020508 3.8842041 1 4 C0.34 4.99 -0.32 5.98 -1 7 C-0.67 4.69 -0.34 2.38 0 0 Z " fill="#E2B0BD" transform="translate(253,145)"/>
<path d="M0 0 C0.66 0 1.32 0 2 0 C1.61020794 6.55925943 0.57886807 11.94526627 -2 18 C-2.66 18 -3.32 18 -4 18 C-4.33 19.98 -4.66 21.96 -5 24 C-5.33 24 -5.66 24 -6 24 C-6.42589023 18.46342706 -4.905247 14.10334017 -3 9 C-2.34 9 -1.68 9 -1 9 C-0.67 6.03 -0.34 3.06 0 0 Z " fill="#D44071" transform="translate(348,259)"/>
<path d="M0 0 C0.66 0.33 1.32 0.66 2 1 C1.34 2.65 0.68 4.3 0 6 C-1.98 6 -3.96 6 -6 6 C-6.33 6.99 -6.66 7.98 -7 9 C-11.09724467 10.54613006 -13.81857651 11.29227216 -18 10 C-17.49025635 9.7326001 -16.9805127 9.4652002 -16.45532227 9.18969727 C-14.15670784 7.9825377 -11.85958995 6.77255777 -9.5625 5.5625 C-8.76005859 5.14162109 -7.95761719 4.72074219 -7.13085938 4.28710938 C-6.36708984 3.88427734 -5.60332031 3.48144531 -4.81640625 3.06640625 C-4.10943604 2.69459229 -3.40246582 2.32277832 -2.67407227 1.93969727 C-1.02071254 1.11087599 -1.02071254 1.11087599 0 0 Z " fill="#E08A9A" transform="translate(214,207)"/>
<path d="M0 0 C0.33 0 0.66 0 1 0 C1.55353075 17.85649203 1.55353075 17.85649203 -2 26 C-2.66 25.67 -3.32 25.34 -4 25 C-3.86722656 24.41734375 -3.73445313 23.8346875 -3.59765625 23.234375 C-2.32899823 17.34483852 -1.63015209 11.57809497 -1.24609375 5.56640625 C-1 3 -1 3 0 0 Z " fill="#E08394" transform="translate(272,166)"/>
<path d="M0 0 C1 3 1 3 0 6 C-1.64488294 7.68816933 -3.31337542 9.35353315 -5 11 C-5.556875 11.763125 -6.11375 12.52625 -6.6875 13.3125 C-7.3371875 14.1478125 -7.3371875 14.1478125 -8 15 C-8.66 15 -9.32 15 -10 15 C-10 15.66 -10 16.32 -10 17 C-12.90548882 19.04169485 -14.40142046 20 -18 20 C-16.37660195 18.29115995 -14.70680947 16.62553283 -13 15 C-12.34 15 -11.68 15 -11 15 C-10.76539063 14.45859375 -10.53078125 13.9171875 -10.2890625 13.359375 C-8.6416356 10.34408456 -6.57346656 7.88815988 -4.375 5.25 C-3.55773437 4.26515625 -2.74046875 3.2803125 -1.8984375 2.265625 C-1.27195312 1.51796875 -0.64546875 0.7703125 0 0 Z " fill="#DE769B" transform="translate(307,276)"/>
<path d="M0 0 C0.66 0 1.32 0 2 0 C2.66 3.3 3.32 6.6 4 10 C3.01 10.33 2.02 10.66 1 11 C1 11.99 1 12.98 1 14 C0.01 14.66 -0.98 15.32 -2 16 C-1.85975781 13.52039864 -1.7130815 11.04147598 -1.5625 8.5625 C-1.52318359 7.85544922 -1.48386719 7.14839844 -1.44335938 6.41992188 C-1.11328125 1.11328125 -1.11328125 1.11328125 0 0 Z " fill="#F74574" transform="translate(337,201)"/>
<path d="M0 0 C0.33 0 0.66 0 1 0 C1.32704762 4.68768255 0.77558689 7.19641797 -2 11 C-3 12 -4 13 -5 14 C-5.33 14.99 -5.66 15.98 -6 17 C-7.65 17.33 -9.3 17.66 -11 18 C-10.31164062 16.93072266 -10.31164062 16.93072266 -9.609375 15.83984375 C-6.27007695 10.62745204 -3.00642459 5.41156426 0 0 Z " fill="#DF6087" transform="translate(319,258)"/>
<path d="M0 0 C3 3 3 3 3.29296875 5.04296875 C3.1953125 7.02864583 3.09765625 9.01432292 3 11 C6 12.33333333 6 12.33333333 9 11 C9.33 11.66 9.66 12.32 10 13 C9.67 13.66 9.34 14.32 9 15 C2.25 15.125 2.25 15.125 0 14 C0 9.38 0 4.76 0 0 Z " fill="#20AA83" transform="translate(243,117)"/>
<path d="M0 0 C0.33 0 0.66 0 1 0 C0.28616542 8.38755627 -3.13375267 15.22201264 -8 22 C-8.625 20.1875 -8.625 20.1875 -9 18 C-8.01 16.515 -8.01 16.515 -7 15 C-6.34 15 -5.68 15 -5 15 C-4.814375 13.700625 -4.814375 13.700625 -4.625 12.375 C-4.01941879 9.10486147 -3.11693965 6.12743101 -2 3 C-1.34 3 -0.68 3 0 3 C0 2.01 0 1.02 0 0 Z " fill="#DCB9BF" transform="translate(233,153)"/>
<path d="M0 0 C1.82672045 5.24137437 -0.75601309 9.22739068 -3 14 C-4.92365133 17.71157057 -6.92897294 21.36879921 -9 25 C-9.33 25 -9.66 25 -10 25 C-10 23.02 -10 21.04 -10 19 C-9.01 18.67 -8.02 18.34 -7 18 C-6.11457756 16.20596961 -6.11457756 16.20596961 -5.5625 14 C-4.09386253 9.13318539 -2.14381379 4.60321438 0 0 Z " fill="#DB7F9C" transform="translate(313,223)"/>
<path d="M0 0 C0.66 0 1.32 0 2 0 C3.28162626 8.11696631 2.6976874 15.85315786 2 24 C1.67 24 1.34 24 1 24 C1 20.7 1 17.4 1 14 C0.34 13.67 -0.32 13.34 -1 13 C-0.67 10.69 -0.34 8.38 0 6 C-0.66 5.67 -1.32 5.34 -2 5 C-1.34 3.35 -0.68 1.7 0 0 Z " fill="#EA6983" transform="translate(314,178)"/>
<path d="M0 0 C1.32 0 2.64 0 4 0 C4 0.66 4 1.32 4 2 C5.32 2.33 6.64 2.66 8 3 C8 3.99 8 4.98 8 6 C9.32 6 10.64 6 12 6 C11.67 7.65 11.34 9.3 11 11 C6.23249574 8.61624787 3.14529325 5.21534147 0 1 C0 0.67 0 0.34 0 0 Z " fill="#3EAE8F" transform="translate(277,125)"/>
<path d="M0 0 C0.66 0 1.32 0 2 0 C0.57523475 4.0813588 -1.41336601 7.17298478 -4 10.625 C-6.06049456 13.39000188 -8.08689899 16.13034848 -10 19 C-10.66 19 -11.32 19 -12 19 C-11.690625 18.401875 -11.38125 17.80375 -11.0625 17.1875 C-9.89790296 14.91043228 -9.89790296 14.91043228 -9 12 C-8.34 12 -7.68 12 -7 12 C-6.7525 11.29875 -6.505 10.5975 -6.25 9.875 C-4.69956299 6.30899488 -2.77498016 2.77498016 0 0 Z " fill="#E27994" transform="translate(301,248)"/>
<path d="M0 0 C0.33 0 0.66 0 1 0 C1.0543965 2.37531394 1.09385864 4.74935883 1.125 7.125 C1.14175781 7.79015625 1.15851563 8.4553125 1.17578125 9.140625 C1.21847278 13.49516056 0.59996217 16.95600114 -1 21 C-1.66 21 -2.32 21 -3 21 C-3.33 21.66 -3.66 22.32 -4 23 C-2.86364454 15.28728953 -1.61840635 7.62717033 0 0 Z " fill="#DE7293" transform="translate(334,210)"/>
<path d="M0 0 C-2.84179188 2.32510245 -5.72826599 4.57700599 -8.6875 6.75 C-9.26886719 7.17796875 -9.85023438 7.6059375 -10.44921875 8.046875 C-12 9 -12 9 -14 9 C-14 7.35 -14 5.7 -14 4 C-13.01 4.33 -12.02 4.66 -11 5 C-11 4.01 -11 3.02 -11 2 C-7.17679443 0.57741188 -4.08718695 -0.24042276 0 0 Z " fill="#DE547F" transform="translate(263,294)"/>
<path d="M0 0 C1.32 0 2.64 0 4 0 C3.34000585 2.79711806 2.54099721 5.48522531 1.5625 8.1875 C1.31628906 8.88230469 1.07007813 9.57710937 0.81640625 10.29296875 C0 12 0 12 -2 13 C-2.65772428 16.02934491 -2.65772428 16.02934491 -3 19 C-3.99 19.33 -4.98 19.66 -6 20 C-5.64792716 16.30323515 -5.14610412 14.21002467 -3 11.125 C-0.49059387 7.20405292 -0.31692072 4.59535042 0 0 Z " fill="#F04F76" transform="translate(306,229)"/>
<path d="M0 0 C2.97 0.33 5.94 0.66 9 1 C9 1.66 9 2.32 9 3 C11.64 3.33 14.28 3.66 17 4 C17.33 4.99 17.66 5.98 18 7 C9.09 5.02 9.09 5.02 0 3 C0 2.01 0 1.02 0 0 Z " fill="#49D3A1" transform="translate(295,105)"/>
<path d="M0 0 C1.11651815 3.34955444 0.99822121 4.67259596 0 8 C-1.5625 9.8125 -1.5625 9.8125 -3 11 C-2.01 11.33 -1.02 11.66 0 12 C-2.31 12.33 -4.62 12.66 -7 13 C-6.4083899 11.20414803 -5.80125808 9.41340371 -5.1875 7.625 C-4.85105469 6.62726563 -4.51460937 5.62953125 -4.16796875 4.6015625 C-3 2 -3 2 0 0 Z " fill="#F18C9C" transform="translate(166,194)"/>
<path d="M0 0 C2.4164124 0.48328248 4.65832183 1.21944061 7 2 C7.625 4.875 7.625 4.875 8 8 C7.34 8.66 6.68 9.32 6 10 C2.26115668 7.34345343 0.35021826 5.41889613 -1 1 C-0.67 0.67 -0.34 0.34 0 0 Z M6 5 C7 7 7 7 7 7 Z " fill="#F21561" transform="translate(176,312)"/>
<path d="M0 0 C2.50276394 3.03496087 3.91612312 5.93195283 5.25 9.625 C5.60578125 10.58664063 5.9615625 11.54828125 6.328125 12.5390625 C7 15 7 15 6 17 C5.01 17 4.02 17 3 17 C2.49453964 14.91798472 1.99583165 12.83432933 1.5 10.75 C1.2215625 9.58984375 0.943125 8.4296875 0.65625 7.234375 C0 4 0 4 0 0 Z " fill="#DC6486" transform="translate(339,201)"/>
<path d="M0 0 C1.37562854 1.28965176 2.70766393 2.62689293 4 4 C4 4.66 4 5.32 4 6 C4.66 6 5.32 6 6 6 C10 12.75 10 12.75 10 15 C7.525 14.01 7.525 14.01 5 13 C5 11.68 5 10.36 5 9 C4.34 9 3.68 9 3 9 C3 7.68 3 6.36 3 5 C1.68 4.34 0.36 3.68 -1 3 C-0.67 2.01 -0.34 1.02 0 0 Z " fill="#4AC7A3" transform="translate(360,115)"/>
<path d="M0 0 C-0.125 1.8125 -0.125 1.8125 -1 4 C-4.53034474 6.16634791 -7.87372297 7.54152477 -12 8 C-12.66 7.67 -13.32 7.34 -14 7 C-10.25 4 -10.25 4 -8 4 C-8 3.34 -8 2.68 -8 2 C-2.25 0 -2.25 0 0 0 Z " fill="#EA7D8F" transform="translate(230,199)"/>
<path d="M0 0 C1.98 0 3.96 0 6 0 C2.0580583 4.88049925 -2.11950075 9.0580583 -7 13 C-7 12.01 -7 11.02 -7 10 C-6.34 10 -5.68 10 -5 10 C-5 9.01 -5 8.02 -5 7 C-4.34 6.67 -3.68 6.34 -3 6 C-1.95191959 4.02477154 -0.9479589 2.02518491 0 0 Z " fill="#E2A9B0" transform="translate(218,176)"/>
<path d="M0 0 C0.99 0 1.98 0 3 0 C3 0.66 3 1.32 3 2 C2.34 2 1.68 2 1 2 C0.76539063 2.58265625 0.53078125 3.1653125 0.2890625 3.765625 C-1.29152924 6.50531734 -3.09401497 7.86983969 -5.625 9.75 C-6.44226563 10.36359375 -7.25953125 10.9771875 -8.1015625 11.609375 C-8.72804688 12.06828125 -9.35453125 12.5271875 -10 13 C-10.99 12.34 -11.98 11.68 -13 11 C-11.68 11 -10.36 11 -9 11 C-9.33 10.01 -9.66 9.02 -10 8 C-8.35 7.67 -6.7 7.34 -5 7 C-5 6.01 -5 5.02 -5 4 C-4.360625 3.71125 -3.72125 3.4225 -3.0625 3.125 C-0.84793921 2.17176549 -0.84793921 2.17176549 0 0 Z " fill="#E65385" transform="translate(316,321)"/>
<path d="M0 0 C1.03719328 3.21456356 0.94068337 5.40925583 0.1875 8.6875 C-0.06966797 9.86892578 -0.06966797 9.86892578 -0.33203125 11.07421875 C-1 13 -1 13 -3 14 C-3.73075648 16.3140622 -4.40138258 18.64828869 -5 21 C-6.96602504 15.34103603 -4.3822522 9.25418118 -2.12890625 3.94921875 C-1.46137804 2.61096842 -0.73818501 1.30061168 0 0 Z " fill="#DE6381" transform="translate(316,210)"/>
<path d="M0 0 C1.31157516 2.62315032 0.89649988 4.23033436 0.5625 7.125 C0.46066406 8.03507813 0.35882813 8.94515625 0.25390625 9.8828125 C0.17011719 10.58148438 0.08632813 11.28015625 0 12 C-0.66 12 -1.32 12 -2 12 C-2 12.66 -2 13.32 -2 14 C-2.99 14.33 -3.98 14.66 -5 15 C-5.125 8.25 -5.125 8.25 -4 6 C-3.34 6 -2.68 6 -2 6 C-1.34 4.02 -0.68 2.04 0 0 Z " fill="#F16E83" transform="translate(269,182)"/>
<path d="M0 0 C1.32 0 2.64 0 4 0 C4 0.66 4 1.32 4 2 C4.66 2 5.32 2 6 2 C6 3.98 6 5.96 6 8 C3 8 3 8 1.3125 6.8125 C-0.40364695 4.44258278 -0.23187108 2.85974334 0 0 Z " fill="#F41A61" transform="translate(170,304)"/>
<path d="M0 0 C0.99 0 1.98 0 3 0 C2.67 0.66 2.34 1.32 2 2 C1.34 1.34 0.68 0.68 0 0 Z M-3 1 C-2.01 1.33 -1.02 1.66 0 2 C-0.61875 2.7425 -1.2375 3.485 -1.875 4.25 C-3.60437281 6.48801188 -4.86106661 8.43739987 -6 11 C-6.66 11 -7.32 11 -8 11 C-8.33 11.99 -8.66 12.98 -9 14 C-9.33 12.35 -9.66 10.7 -10 9 C-8.68 9 -7.36 9 -6 9 C-6.061875 8.05125 -6.12375 7.1025 -6.1875 6.125 C-6.125625 5.09375 -6.06375 4.0625 -6 3 C-5.01 2.34 -4.02 1.68 -3 1 Z " fill="#F74C71" transform="translate(269,235)"/>
<path d="M0 0 C-0.33 1.32 -0.66 2.64 -1 4 C-12.52164009 6.29612756 -12.52164009 6.29612756 -18 6 C-14.72828292 4.24560099 -11.39577958 3.04282615 -7.875 1.875 C-6.82054687 1.52179688 -5.76609375 1.16859375 -4.6796875 0.8046875 C-2 0 -2 0 0 0 Z " fill="#DF8091" transform="translate(196,218)"/>
<path d="M0 0 C0.66 0 1.32 0 2 0 C1.38022871 3.63381693 0.36954869 6.79472515 -1.0625 10.1875 C-2.54047461 13.49021773 -2.54047461 13.49021773 -3 17 C-3.66 17 -4.32 17 -5 17 C-3.82352941 3.82352941 -3.82352941 3.82352941 0 0 Z " fill="#EE6C87" transform="translate(286,198)"/>
<path d="M0 0 C1.32 0.33 2.64 0.66 4 1 C3.34 2.32 2.68 3.64 2 5 C1.34 5 0.68 5 0 5 C-0.2475 5.61875 -0.495 6.2375 -0.75 6.875 C-2.20628639 9.35068687 -3.37812506 9.95125002 -6 11 C-6 9.68 -6 8.36 -6 7 C-5.01 6.67 -4.02 6.34 -3 6 C-2.67 5.01 -2.34 4.02 -2 3 C-1.34 3 -0.68 3 0 3 C0 2.01 0 1.02 0 0 Z " fill="#E2648D" transform="translate(269,283)"/>
<path d="M0 0 C6.6 0 13.2 0 20 0 C20 0.33 20 0.66 20 1 C17.25162151 1.53107314 14.50187625 2.05015881 11.75 2.5625 C10.97269531 2.71396484 10.19539062 2.86542969 9.39453125 3.02148438 C8.64042969 3.16005859 7.88632813 3.29863281 7.109375 3.44140625 C6.41811523 3.57232666 5.72685547 3.70324707 5.01464844 3.83813477 C2.78712058 4.01710362 1.12493038 3.65206197 -1 3 C-0.67 2.01 -0.34 1.02 0 0 Z " fill="#E26784" transform="translate(157,268)"/>
<path d="M0 0 C0.99 1.32 1.98 2.64 3 4 C3.66 4.66 4.32 5.32 5 6 C5.99 5.67 6.98 5.34 8 5 C7.25 7.9375 7.25 7.9375 6 11 C4.68 11.33 3.36 11.66 2 12 C1.34 8.04 0.68 4.08 0 0 Z " fill="#F7426B" transform="translate(151,259)"/>
<path d="M0 0 C-0.33 1.32 -0.66 2.64 -1 4 C-2.65 4.33 -4.3 4.66 -6 5 C-6 5.66 -6 6.32 -6 7 C-6.66 7 -7.32 7 -8 7 C-8 7.66 -8 8.32 -8 9 C-9.98 9.33 -11.96 9.66 -14 10 C-4.76923077 0 -4.76923077 0 0 0 Z " fill="#E0758C" transform="translate(246,255)"/>
<path d="M0 0 C2.625 0.375 2.625 0.375 5 1 C5 1.66 5 2.32 5 3 C3.68 3.33 2.36 3.66 1 4 C1.33 4.66 1.66 5.32 2 6 C1.01 6 0.02 6 -1 6 C-1 6.66 -1 7.32 -1 8 C-2.65 8 -4.3 8 -6 8 C-5.34 7.67 -4.68 7.34 -4 7 C-3.31867549 5.33927151 -2.65257873 3.672233 -2 2 C-1.34 1.34 -0.68 0.68 0 0 Z " fill="#0AA87F" transform="translate(365,137)"/>
<path d="M0 0 C1.98 0.99 3.96 1.98 6 3 C6 3.66 6 4.32 6 5 C6.66 5 7.32 5 8 5 C8 5.66 8 6.32 8 7 C8.66 7 9.32 7 10 7 C10 7.66 10 8.32 10 9 C10.66 9 11.32 9 12 9 C12 9.66 12 10.32 12 11 C12.66 11 13.32 11 14 11 C13.67 11.66 13.34 12.32 13 13 C11.0625 12.6875 11.0625 12.6875 9 12 C8.67 11.01 8.34 10.02 8 9 C7.34 8.67 6.68 8.34 6 8 C6 7.34 6 6.68 6 6 C4.68 5.34 3.36 4.68 2 4 C2 3.34 2 2.68 2 2 C1.34 2 0.68 2 0 2 C0 1.34 0 0.68 0 0 Z " fill="#55D7A8" transform="translate(345,101)"/>
<path d="M0 0 C-1 3 -1 3 -4 5 C-4.33 5.99 -4.66 6.98 -5 8 C-6.32 7.34 -7.64 6.68 -9 6 C-8.8125 4.125 -8.8125 4.125 -8 2 C-5.10888212 0.47835901 -3.28176588 0 0 0 Z " fill="#DECBD9" transform="translate(200,390)"/>
<path d="M0 0 C1.8125 0.1875 1.8125 0.1875 4 1 C5.5 3.25 5.5 3.25 7 6 C7.721875 6.886875 8.44375 7.77375 9.1875 8.6875 C11 11 11 11 11 13 C10.34 13 9.68 13 9 13 C9 12.34 9 11.68 9 11 C8.34 11 7.68 11 7 11 C5.2734375 9.1015625 5.2734375 9.1015625 3.375 6.625 C2.42753906 5.40683594 2.42753906 5.40683594 1.4609375 4.1640625 C0 2 0 2 0 0 Z " fill="#D8638B" transform="translate(166,305)"/>
<path d="M0 0 C0.66 0.33 1.32 0.66 2 1 C1.67 2.65 1.34 4.3 1 6 C0.34 6 -0.32 6 -1 6 C-1.103125 6.721875 -1.20625 7.44375 -1.3125 8.1875 C-2.06793947 11.27793421 -3.15531315 13.41743841 -5 16 C-5.66 16 -6.32 16 -7 16 C-5.35433477 10.31497465 -2.70967216 5.23318364 0 0 Z " fill="#DDA1A9" transform="translate(247,167)"/>
<path d="M0 0 C5.63470383 -0.5497272 8.38987758 1.04952165 13 4 C11.68 4.99 10.36 5.98 9 7 C6.5 5.6875 6.5 5.6875 4 4 C4 3.01 4 2.02 4 1 C2.68 0.67 1.36 0.34 0 0 Z " fill="#32D89D" transform="translate(332,96)"/>
<path d="M0 0 C0.33 0.99 0.66 1.98 1 3 C4.93075644 2.42547254 4.93075644 2.42547254 8 0 C8.99 0.33 9.98 0.66 11 1 C12.66362417 1.34820041 14.32995171 1.68404492 16 2 C16 2.33 16 2.66 16 3 C9.65758005 4.15316726 3.43311296 4.09507063 -3 4 C-2.01 2.68 -1.02 1.36 0 0 Z " fill="#F4426B" transform="translate(161,265)"/>
<path d="M0 0 C-5.59609791 2.93128938 -10.5744349 5.37797442 -17 5 C-17.33 5.66 -17.66 6.32 -18 7 C-18 6.01 -18 5.02 -18 4 C-15.03 3.34 -12.06 2.68 -9 2 C-9 1.34 -9 0.68 -9 0 C-3.375 -1.125 -3.375 -1.125 0 0 Z " fill="#F06480" transform="translate(187,224)"/>
<path d="M0 0 C0.886875 0.37125 1.77375 0.7425 2.6875 1.125 C6.40826005 2.10784228 7.67438135 1.76062164 11 0 C11.99 1.32 12.98 2.64 14 4 C7.565 4.495 7.565 4.495 1 5 C0.67 3.35 0.34 1.7 0 0 Z " fill="#049B73" transform="translate(337,145)"/>
<path d="M0 0 C1.32 0.33 2.64 0.66 4 1 C4.625 2.875 4.625 2.875 5 5 C4.34 5.66 3.68 6.32 3 7 C0.375 6.625 0.375 6.625 -2 6 C-1.34 5.01 -0.68 4.02 0 3 C0 2.01 0 1.02 0 0 Z " fill="#DCC9D8" transform="translate(305,391)"/>
<path d="M0 0 C0 0.66 0 1.32 0 2 C-0.66 2 -1.32 2 -2 2 C-2.33 2.99 -2.66 3.98 -3 5 C-5.95664519 6.4783226 -8.74229737 6.06032783 -12 6 C-8.59780735 3.25207517 -4.51535412 0 0 0 Z " fill="#DE5588" transform="translate(234,332)"/>
<path d="M0 0 C0.99 0 1.98 0 3 0 C3 0.99 3 1.98 3 3 C3.66 3.33 4.32 3.66 5 4 C0.25 7 0.25 7 -2 7 C-2.125 4.625 -2.125 4.625 -2 2 C-1.34 1.34 -0.68 0.68 0 0 Z " fill="#F7296C" transform="translate(166,293)"/>
<path d="M0 0 C0.66 0 1.32 0 2 0 C2 0.66 2 1.32 2 2 C3.32 1.67 4.64 1.34 6 1 C6.33 1.99 6.66 2.98 7 4 C4.04335481 5.4783226 1.25770263 5.06032783 -2 5 C-1.34 3.35 -0.68 1.7 0 0 Z " fill="#F53766" transform="translate(194,256)"/>
<path d="M0 0 C0.66 0.99 1.32 1.98 2 3 C1.113125 3.391875 0.22625 3.78375 -0.6875 4.1875 C-4.12099103 6.06620264 -6.29000698 8.2147294 -9 11 C-9.66 11 -10.32 11 -11 11 C-11 10.34 -11 9.68 -11 9 C-10.01 8.34 -9.02 7.68 -8 7 C-7.67 6.01 -7.34 5.02 -7 4 C-4.78298853 2.41034429 -2.42137527 1.27672514 0 0 Z " fill="#F9466F" transform="translate(253,251)"/>
<path d="M0 0 C1.65 0 3.3 0 5 0 C-3.75 7 -3.75 7 -8 7 C-8 6.01 -8 5.02 -8 4 C-7.34 4 -6.68 4 -6 4 C-6 3.34 -6 2.68 -6 2 C-4.02 2 -2.04 2 0 2 C0 1.34 0 0.68 0 0 Z " fill="#E26A85" transform="translate(215,251)"/>
<path d="M0 0 C0.66 0.33 1.32 0.66 2 1 C2 1.66 2 2.32 2 3 C-1.85756507 5.15305957 -4.55129785 6.39253254 -9 6 C-8.67 5.01 -8.34 4.02 -8 3 C-5.56723614 1.81480735 -3.71982714 1 -1 1 C-0.67 0.67 -0.34 0.34 0 0 Z " fill="#F69196" transform="translate(196,192)"/>
<path d="M0 0 C2.4375 1.125 2.4375 1.125 5 3 C5.8125 6.1875 5.8125 6.1875 6 9 C5.01 9 4.02 9 3 9 C1.68 6.36 0.36 3.72 -1 1 C-0.67 0.67 -0.34 0.34 0 0 Z " fill="#EA7E96" transform="translate(309,169)"/>
<path d="M0 0 C-2.30153291 2.30153291 -3.84875905 2.7577028 -6.9375 3.6875 C-7.81277344 3.95949219 -8.68804687 4.23148437 -9.58984375 4.51171875 C-12 5 -12 5 -15 4 C-13.68 3.67 -12.36 3.34 -11 3 C-11 2.34 -11 1.68 -11 1 C-7.27569643 0.30710631 -3.78916254 -0.11144596 0 0 Z " fill="#D24271" transform="translate(289,342)"/>
<path d="M0 0 C2.475 0.99 2.475 0.99 5 2 C1.93882432 4.62386487 1.26826873 5 -3 5 C-3 5.66 -3 6.32 -3 7 C-3.99 6.67 -4.98 6.34 -6 6 C-5.67 4.68 -5.34 3.36 -5 2 C-4.360625 1.855625 -3.72125 1.71125 -3.0625 1.5625 C-1.02454854 1.18992819 -1.02454854 1.18992819 0 0 Z " fill="#F6185C" transform="translate(223,310)"/>
<path d="M0 0 C0.33 0 0.66 0 1 0 C1.25 3.3125 1.25 3.3125 1 7 C-0.875 8.9375 -0.875 8.9375 -3 10 C-3.66 10 -4.32 10 -5 10 C-3.66654496 6.40992874 -2.1056769 3.20429093 0 0 Z " fill="#DFA4AD" transform="translate(168,186)"/>
<path d="M0 0 C1.32 0.33 2.64 0.66 4 1 C3.34 1 2.68 1 2 1 C2 1.66 2 2.32 2 3 C2.99 3 3.98 3 5 3 C5.66 4.98 6.32 6.96 7 9 C4 9 4 9 2.375 7.875 C0.52617065 5.35386907 0.34072203 3.06649825 0 0 Z " fill="#35BB8E" transform="translate(271,115)"/>
<path d="M0 0 C0.66 0.33 1.32 0.66 2 1 C1.67 2.32 1.34 3.64 1 5 C3.475 5.99 3.475 5.99 6 7 C2.18510326 8.46726798 -0.29011622 7.43336419 -4 6 C-4 5.01 -4 4.02 -4 3 C-2 1.3125 -2 1.3125 0 0 Z " fill="#CC6C95" transform="translate(220,338)"/>
<path d="M0 0 C0.6875 1.625 0.6875 1.625 1 4 C-0.4375 7.25 -0.4375 7.25 -2 10 C0.31 10.33 2.62 10.66 5 11 C5 11.33 5 11.66 5 12 C2.03 12 -0.94 12 -4 12 C-3.45660208 7.43545749 -2.20536179 4.0271824 0 0 Z " fill="#D6AAB7" transform="translate(162,196)"/>
<path d="M0 0 C0.33 0 0.66 0 1 0 C1 1.98 1 3.96 1 6 C0.2575 6.28875 -0.485 6.5775 -1.25 6.875 C-3.56900199 7.82368263 -5.76932676 8.86559779 -8 10 C-7.04367001 8.70684939 -6.08486149 7.41553147 -5.125 6.125 C-4.59132813 5.40570313 -4.05765625 4.68640625 -3.5078125 3.9453125 C-2 2 -2 2 0 0 Z " fill="#DD7C92" transform="translate(262,238)"/>
<path d="M0 0 C1.32 0 2.64 0 4 0 C5.1577506 3.47325181 5.06866652 6.36067448 5 10 C4.01 10.495 4.01 10.495 3 11 C2.86722656 10.37351563 2.73445313 9.74703125 2.59765625 9.1015625 C2.42105469 8.28429687 2.24445313 7.46703125 2.0625 6.625 C1.80146484 5.40683594 1.80146484 5.40683594 1.53515625 4.1640625 C1.07669307 1.970537 1.07669307 1.970537 0 0 Z " fill="#E4A2AE" transform="translate(269,149)"/>
<path d="M0 0 C6.4 0.49230769 6.4 0.49230769 9.4375 3.0625 C10.2109375 4.0215625 10.2109375 4.0215625 11 5 C4.6 4.50769231 4.6 4.50769231 1.5625 1.9375 C1.046875 1.298125 0.53125 0.65875 0 0 Z " fill="#2BAB8B" transform="translate(288,136)"/>
<path d="M0 0 C0 0.66 0 1.32 0 2 C-2.90548882 4.04169485 -4.40142046 5 -8 5 C-7.75 3.125 -7.75 3.125 -7 1 C-4.09342573 -1.03460199 -3.47133392 -1.15711131 0 0 Z " fill="#EB0F53" transform="translate(307,330)"/>
<path d="M0 0 C-3 2 -3 2 -5 2.875 C-7.37995135 4.21372264 -8.49888523 5.74832785 -10 8 C-10.33 6.35 -10.66 4.7 -11 3 C-7.14243493 0.84694043 -4.44870215 -0.39253254 0 0 Z " fill="#D27399" transform="translate(170,289)"/>
<path d="M0 0 C0.66 0 1.32 0 2 0 C2 1.98 2 3.96 2 6 C0.02 6.99 0.02 6.99 -2 8 C-2 6.02 -2 4.04 -2 2 C-1.34 2 -0.68 2 0 2 C0 1.34 0 0.68 0 0 Z " fill="#E95383" transform="translate(332,299)"/>
<path d="M0 0 C0.66 0 1.32 0 2 0 C0.375 6.75 0.375 6.75 -3 9 C-4 6 -4 6 -3.0625 3.8125 C-2.5365625 2.9153125 -2.5365625 2.9153125 -2 2 C-1.34 2 -0.68 2 0 2 C0 1.34 0 0.68 0 0 Z " fill="#DE8195" transform="translate(267,194)"/>
<path d="M0 0 C0.66 1.32 1.32 2.64 2 4 C-0.31 5.65 -2.62 7.3 -5 9 C-4.5206753 4.68607774 -3.2542015 2.83430453 0 0 Z " fill="#F4828D" transform="translate(246,177)"/>
<path d="M0 0 C8.57142857 0.85714286 8.57142857 0.85714286 12 3 C12 3.99 12 4.98 12 6 C7.96479403 4.41037341 3.98188718 2.71767682 0 1 C0 0.67 0 0.34 0 0 Z " fill="#4FCEA2" transform="translate(314,112)"/>
<path d="M0 0 C0 3 0 3 -1 5 C-2.8125 6.1875 -2.8125 6.1875 -5 7 C-6.32 6.67 -7.64 6.34 -9 6 C-6.03 4.02 -3.06 2.04 0 0 Z " fill="#DB628E" transform="translate(272,310)"/>
<path d="M0 0 C0.33 0 0.66 0 1 0 C1.125 7.75 1.125 7.75 0 10 C-2.0625 10.625 -2.0625 10.625 -4 11 C-2.7874262 7.27566618 -1.49140021 3.62197194 0 0 Z " fill="#E36A94" transform="translate(324,247)"/>
<path d="M0 0 C0.66 0.33 1.32 0.66 2 1 C1.01 1.33 0.02 1.66 -1 2 C-1.33 2.99 -1.66 3.98 -2 5 C-3.9375 7.1875 -3.9375 7.1875 -6 9 C-6.66 9 -7.32 9 -8 9 C-6.6284197 6.04582705 -5.13179822 3.47288594 -3 1 C-2.01 0.67 -1.02 0.34 0 0 Z " fill="#DDB1B5" transform="translate(177,177)"/>
<path d="M0 0 C2.64 0.33 5.28 0.66 8 1 C8.33 2.98 8.66 4.96 9 7 C7.4972763 6.02501855 5.99788037 5.04490611 4.5 4.0625 C3.6646875 3.51722656 2.829375 2.97195312 1.96875 2.41015625 C1.3190625 1.94480469 0.669375 1.47945313 0 1 C0 0.67 0 0.34 0 0 Z " fill="#50CCA3" transform="translate(326,118)"/>
<path d="M0 0 C3 3 3 3 3.14453125 5.0078125 C2.82947454 7.01676237 2.4173053 9.00977474 2 11 C1.01 11.495 1.01 11.495 0 12 C0 8.04 0 4.08 0 0 Z " fill="#11A36B" transform="translate(243,117)"/>
<path d="M0 0 C-0.33 0.99 -0.66 1.98 -1 3 C-1.99 3 -2.98 3 -4 3 C-4.33 3.66 -4.66 4.32 -5 5 C-6.32 5 -7.64 5 -9 5 C-8.67 4.01 -8.34 3.02 -8 2 C-5.10441559 0.5522078 -3.25811062 0 0 0 Z " fill="#EE296F" transform="translate(271,315)"/>
<path d="M0 0 C0.66 0 1.32 0 2 0 C1.67 1.32 1.34 2.64 1 4 C0.01 4 -0.98 4 -2 4 C-2 5.32 -2 6.64 -2 8 C-2.66 8 -3.32 8 -4 8 C-4.66 6.68 -5.32 5.36 -6 4 C-4.125 2.9375 -4.125 2.9375 -2 2 C-1.34 2.33 -0.68 2.66 0 3 C0 2.01 0 1.02 0 0 Z " fill="#EF2664" transform="translate(265,286)"/>
<path d="M0 0 C1.60226148 4.00565371 0.47694566 7.08609399 -1 11 C-1.99 11.33 -2.98 11.66 -4 12 C-3.52309796 10.37433394 -3.04340334 8.74948689 -2.5625 7.125 C-2.29566406 6.22007812 -2.02882813 5.31515625 -1.75390625 4.3828125 C-1 2 -1 2 0 0 Z " fill="#DA6B94" transform="translate(329,235)"/>
<path d="M0 0 C0 0.66 0 1.32 0 2 C-5.47619048 7 -5.47619048 7 -8 7 C-7.62005832 4.24542282 -7.1926367 3.17979426 -5.125 1.25 C-3 0 -3 0 0 0 Z " fill="#DE6783" transform="translate(240,235)"/>
<path d="M0 0 C0.66 0.99 1.32 1.98 2 3 C0.71937515 4.7074998 -0.61767557 6.37373596 -2 8 C-2.66 8 -3.32 8 -4 8 C-4 8.66 -4 9.32 -4 10 C-4.66 9.67 -5.32 9.34 -6 9 C-4.02 6.03 -2.04 3.06 0 0 Z " fill="#DE85A0" transform="translate(273,223)"/>
<path d="M0 0 C0.66 0 1.32 0 2 0 C2.33 2.31 2.66 4.62 3 7 C1.68 7 0.36 7 -1 7 C-1.04254356 5.00045254 -1.04080783 2.99958364 -1 1 C-0.67 0.67 -0.34 0.34 0 0 Z " fill="#EF4E7C" transform="translate(337,201)"/>
<path d="M0 0 C0.33 0.99 0.66 1.98 1 3 C1.99 3.33 2.98 3.66 4 4 C1.25 10.875 1.25 10.875 -1 12 C-0.67 8.04 -0.34 4.08 0 0 Z " fill="#FA718B" transform="translate(291,174)"/>
<path d="M0 0 C3.93673644 1.31224548 6.22719294 2.91910327 9 6 C6.69 5.67 4.38 5.34 2 5 C1.34 3.35 0.68 1.7 0 0 Z " fill="#D898AB" transform="translate(292,154)"/>
<path d="M0 0 C8.57142857 -0.28571429 8.57142857 -0.28571429 12 2 C9.75 3.125 9.75 3.125 7 4 C4.875 3.125 4.875 3.125 3 2 C2.01 2 1.02 2 0 2 C0 1.34 0 0.68 0 0 Z " fill="#18DC93" transform="translate(312,91)"/>
<path d="M0 0 C2 1 2 1 3.125 4.0625 C3.41375 5.031875 3.7025 6.00125 4 7 C2.02 6.34 0.04 5.68 -2 5 C-1.34 3.35 -0.68 1.7 0 0 Z " fill="#DF1C65" transform="translate(222,338)"/>
<path d="M0 0 C0.66 0 1.32 0 2 0 C2 1.32 2 2.64 2 4 C0.03533587 5.06775224 -1.96855359 6.06553465 -4 7 C-4.66 6.67 -5.32 6.34 -6 6 C-4.6875 4 -4.6875 4 -3 2 C-2.01 2 -1.02 2 0 2 C0 1.34 0 0.68 0 0 Z " fill="#E36B82" transform="translate(269,231)"/>
<path d="M0 0 C1.32 0 2.64 0 4 0 C4 0.66 4 1.32 4 2 C5.32 2.33 6.64 2.66 8 3 C7.67 3.99 7.34 4.98 7 6 C4.0625 4.6875 4.0625 4.6875 1 3 C0.67 2.01 0.34 1.02 0 0 Z " fill="#2EAD85" transform="translate(277,125)"/>
<path d="M0 0 C1.32 0.66 2.64 1.32 4 2 C1.37801226 4.15377564 -0.64404172 5.40072174 -4 6 C-4.33 5.01 -4.66 4.02 -5 3 C-3.35 3 -1.7 3 0 3 C0 2.01 0 1.02 0 0 Z " fill="#DD4474" transform="translate(294,336)"/>
<path d="M0 0 C0.99 0 1.98 0 3 0 C1.55746343 3.36591866 -0.33264727 5.51047079 -3 8 C-2.25 2.25 -2.25 2.25 0 0 Z " fill="#E66C90" transform="translate(286,267)"/>
<path d="M0 0 C0.33 0 0.66 0 1 0 C1.28571429 8.57142857 1.28571429 8.57142857 -1 12 C-1.66 12 -2.32 12 -3 12 C-2.01 8.04 -1.02 4.08 0 0 Z " fill="#DFA6B1" transform="translate(251,153)"/>
<path d="M0 0 C-0.5625 1.9375 -0.5625 1.9375 -2 4 C-5.625 4.75 -5.625 4.75 -9 5 C-7.36885863 1.73771726 -3.62038485 0 0 0 Z " fill="#E0768D" transform="translate(225,269)"/>
<path d="M0 0 C0.66 0.33 1.32 0.66 2 1 C1.62403791 3.78211944 1.32681541 5.5879284 -0.4375 7.8125 C-2 9 -2 9 -4 9 C-3.67 7.35 -3.34 5.7 -3 4 C-2.01 4.33 -1.02 4.66 0 5 C0 3.35 0 1.7 0 0 Z " fill="#F1657B" transform="translate(261,202)"/>
<path d="M0 0 C-4.40639354 2.20319677 -6.97450871 3.10924981 -12 3 C-7.74687289 -0.37316977 -5.33599971 -1.29794588 0 0 Z " fill="#4AB49C" transform="translate(358,147)"/>
<path d="M0 0 C0.99 0 1.98 0 3 0 C2.34 1.98 1.68 3.96 1 6 C-0.32 5.67 -1.64 5.34 -3 5 C-1.6875 2.5 -1.6875 2.5 0 0 Z " fill="#EE1F5D" transform="translate(234,305)"/>
<path d="M0 0 C1 4 1 4 0 7 C-1.65 7.33 -3.3 7.66 -5 8 C-3.35 5.36 -1.7 2.72 0 0 Z " fill="#D96C90" transform="translate(313,268)"/>
<path d="M0 0 C0.66 0 1.32 0 2 0 C0.52307692 4.67692308 0.52307692 4.67692308 -2.125 6.3125 C-3.053125 6.6528125 -3.053125 6.6528125 -4 7 C-2.92598892 4.08482708 -2.22189824 2.22189824 0 0 Z " fill="#DF6E8F" transform="translate(301,248)"/>
<path d="M0 0 C0.66 0.99 1.32 1.98 2 3 C1.25 6.125 1.25 6.125 0 9 C-0.99 9.495 -0.99 9.495 -2 10 C-1.85950482 8.52031676 -1.71245174 7.04125484 -1.5625 5.5625 C-1.48128906 4.73878906 -1.40007812 3.91507813 -1.31640625 3.06640625 C-1 1 -1 1 0 0 Z " fill="#F75978" transform="translate(278,218)"/>
<path d="M0 0 C0.66 0.33 1.32 0.66 2 1 C1.34 2.65 0.68 4.3 0 6 C-1.32 6 -2.64 6 -4 6 C-3.6875 4.125 -3.6875 4.125 -3 2 C-2.01 1.34 -1.02 0.68 0 0 Z " fill="#E08090" transform="translate(214,207)"/>
<path d="M0 0 C0.66 0.33 1.32 0.66 2 1 C2 1.66 2 2.32 2 3 C2.99 3.33 3.98 3.66 5 4 C3.02 4.99 1.04 5.98 -1 7 C-1.04254356 5.00045254 -1.04080783 2.99958364 -1 1 C-0.67 0.67 -0.34 0.34 0 0 Z " fill="#F37D9C" transform="translate(292,156)"/>
<path d="M0 0 C0.99 0 1.98 0 3 0 C3.25 6.625 3.25 6.625 1 10 C0.67 6.7 0.34 3.4 0 0 Z " fill="#DED4D6" transform="translate(233,145)"/>
<path d="M0 0 C1.65 0 3.3 0 5 0 C5.33 0.99 5.66 1.98 6 3 C5.21625 3.103125 4.4325 3.20625 3.625 3.3125 C0.66954819 3.77595022 0.66954819 3.77595022 -1 7 C-0.67 4.69 -0.34 2.38 0 0 Z " fill="#D9ABB8" transform="translate(253,145)"/>
<path d="M0 0 C0.66 0.99 1.32 1.98 2 3 C2.99 3.66 3.98 4.32 5 5 C0.25 6.125 0.25 6.125 -2 5 C-1.125 1.125 -1.125 1.125 0 0 Z " fill="#90E0CD" transform="translate(270,100)"/>
<path d="M0 0 C0.75 1.6875 0.75 1.6875 1 4 C-0.8125 6.75 -0.8125 6.75 -3 9 C-3.66 9 -4.32 9 -5 9 C-5 8.34 -5 7.68 -5 7 C-4.34 7 -3.68 7 -3 7 C-2.87625 6.401875 -2.7525 5.80375 -2.625 5.1875 C-2 3 -2 3 0 0 Z " fill="#F42764" transform="translate(329,303)"/>
<path d="M0 0 C2.97 0 5.94 0 9 0 C6.6120592 2.3879408 5.23091381 2.35381724 2 3 C1.34 3.66 0.68 4.32 0 5 C0 3.35 0 1.7 0 0 Z " fill="#F16281" transform="translate(151,230)"/>
<path d="M0 0 C0.99 0.66 1.98 1.32 3 2 C-1.75 6 -1.75 6 -4 6 C-2.25 1.125 -2.25 1.125 0 0 Z " fill="#EC687D" transform="translate(218,206)"/>
<path d="M0 0 C0.66 0 1.32 0 2 0 C1.67 1.32 1.34 2.64 1 4 C-0.98 4.33 -2.96 4.66 -5 5 C-5 4.34 -5 3.68 -5 3 C-3.35 2.67 -1.7 2.34 0 2 C0 1.34 0 0.68 0 0 Z " fill="#E59DA9" transform="translate(208,187)"/>
<path d="M0 0 C2.475 0.99 2.475 0.99 5 2 C5 2.66 5 3.32 5 4 C5.66 4.33 6.32 4.66 7 5 C5.35 5 3.7 5 2 5 C2 4.34 2 3.68 2 3 C1.34 3 0.68 3 0 3 C0 2.01 0 1.02 0 0 Z " fill="#E09BAC" transform="translate(301,160)"/>
<path d="M0 0 C0.33 0.66 0.66 1.32 1 2 C1.66 2 2.32 2 3 2 C3 3.65 3 5.3 3 7 C2.67 6.34 2.34 5.68 2 5 C0.68 5 -0.64 5 -2 5 C-1.34 3.35 -0.68 1.7 0 0 Z " fill="#10D28C" transform="translate(332,114)"/>
<path d="M0 0 C1.98 0 3.96 0 6 0 C6.33 1.32 6.66 2.64 7 4 C6.01 4.33 5.02 4.66 4 5 C4 4.01 4 3.02 4 2 C2.68 1.67 1.36 1.34 0 1 C0 0.67 0 0.34 0 0 Z " fill="#17D58D" transform="translate(322,113)"/>
<path d="M0 0 C1.98 0.99 1.98 0.99 4 2 C4 2.66 4 3.32 4 4 C4.99 4.33 5.98 4.66 7 5 C6.67 5.99 6.34 6.98 6 8 C4.5 6.625 4.5 6.625 3 5 C3 4.34 3 3.68 3 3 C2.01 3 1.02 3 0 3 C0 2.01 0 1.02 0 0 Z " fill="#16DC92" transform="translate(347,105)"/>
<path d="M0 0 C0 0.99 0 1.98 0 3 C-2.375 4.75 -2.375 4.75 -5 6 C-5.66 5.67 -6.32 5.34 -7 5 C-2.25 1.125 -2.25 1.125 0 0 Z " fill="#56CEA8" transform="translate(278,95)"/>
<path d="M0 0 C0.66 0.66 1.32 1.32 2 2 C-0.625 7.75 -0.625 7.75 -4 10 C-3.52449439 8.51965236 -3.04448784 7.04074979 -2.5625 5.5625 C-2.29566406 4.73878906 -2.02882813 3.91507812 -1.75390625 3.06640625 C-1 1 -1 1 0 0 Z " fill="#FB276B" transform="translate(310,277)"/>
<path d="M0 0 C1.32 0 2.64 0 4 0 C4 0.66 4 1.32 4 2 C3.34 2 2.68 2 2 2 C2 2.66 2 3.32 2 4 C0.68 4.33 -0.64 4.66 -2 5 C-2 4.01 -2 3.02 -2 2 C-1.34 2 -0.68 2 0 2 C0 1.34 0 0.68 0 0 Z " fill="#E47392" transform="translate(226,243)"/>
<path d="M0 0 C0.99 0 1.98 0 3 0 C2.67 0.66 2.34 1.32 2 2 C1.34 1.34 0.68 0.68 0 0 Z M-3 1 C-2.01 1.33 -1.02 1.66 0 2 C-0.33 2.66 -0.66 3.32 -1 4 C-3.5625 4.625 -3.5625 4.625 -6 5 C-6 4.34 -6 3.68 -6 3 C-5.01 2.34 -4.02 1.68 -3 1 Z " fill="#EF5676" transform="translate(269,235)"/>
<path d="M0 0 C2.64 0 5.28 0 8 0 C5.23776722 2.76223278 2.79293383 2.57856291 -1 3 C-0.67 2.01 -0.34 1.02 0 0 Z " fill="#DBA5AC" transform="translate(177,202)"/>
</svg>
